<svg xmlns="http://www.w3.org/2000/svg" width="256" height="256" viewBox="0 0 256 256"><path fill="#EF3F36" d="M127.675.022s75.18-3.374 115.036 72.192h-121.433s-22.916-.738-42.493 27.063c-5.624 11.668-11.669 23.689-4.885 47.379-9.771-16.555-51.877-89.872-51.877-89.872s29.699-53.774 105.652-56.762z"/><path fill="#FCD900" d="M238.811 191.855s-34.691 66.815-120.028 63.512c10.543-18.241 60.735-105.161 60.735-105.161s12.125-19.471-2.18-50.33c-7.275-10.72-14.691-21.932-38.592-27.907 19.226-.176 103.755 0 103.755 0s31.668 52.615-3.69 119.886z"/><path fill="#61BC5B" d="M17.066 192.383s-40.524-63.44 5.026-135.703c10.509 18.242 60.699 105.16 60.699 105.16s10.826 20.245 44.673 23.268c12.898-.948 26.325-1.758 43.477-19.437-9.455 16.729-51.877 89.837-51.877 89.837s-61.438 1.125-101.998-63.125z"/><path fill="#5AB055" d="M118.748 256l17.082-71.279s18.769-1.476 34.514-18.732c-9.772 17.186-51.596 90.011-51.596 90.011z"/><path fill="#fff" d="M70.455 128.802c0-31.422 25.482-56.904 56.903-56.904 31.423 0 56.904 25.481 56.904 56.904 0 31.421-25.481 56.903-56.904 56.903-31.421-.035-56.903-25.481-56.903-56.903z"/><linearGradient id="a" gradientUnits="userSpaceOnUse" x1="34.868" y1="222.182" x2="34.868" y2="221.221" gradientTransform="matrix(94.935 0 0 -94.935 -3182.881 21174.891)"><stop offset="0" stop-color="#86BBE5"/><stop offset="1" stop-color="#1072BA"/></linearGradient><path fill="url(#a)" d="M79.98 128.802c0-26.15 21.194-47.379 47.378-47.379 26.149 0 47.379 21.194 47.379 47.379 0 26.149-21.194 47.377-47.379 47.377-26.149.001-47.378-21.228-47.378-47.377z"/><path fill="#EACA05" d="M242.466 72.004l-70.329 20.632s-10.615-15.57-33.426-20.632c19.788-.106 103.755 0 103.755 0z"/><path fill="#DF3A32" d="M72.529 144.056c-9.876-17.117-50.506-87.271-50.506-87.271l52.088 51.526s-5.343 11.001-3.339 26.747l1.757 8.998z"/></svg>