<svg xmlns="http://www.w3.org/2000/svg" width="256" height="256" viewBox="0 0 256 256"><path fill="#3177BC" d="M57.707 67.804c-30.455 18.958-47.861 45.897-47.861 45.897s4.51-56.488 47.861-89.542c17.241-13.146 40.813-24.159 72.516-24.159 11.91 0 36.887 2.072 59.384 15.942s31.586 25.489 41.721 42.499c4.374 7.339 7.936 16.769 10.158 25.865 4.162 17.042 4.669 37.422 4.669 37.422v26.848h-160.781s-3.927 54.019 70.015 54.019c25.716 0 34.721-4.04 43.18-6.545 13.24-3.921 26.025-12.66 26.025-12.66l.025 53.971s-30.262 18.64-75.979 18.64c-12.874 0-26.442-1.08-39.527-5.326-11.434-3.709-35.379-13.715-51.406-37.166-5.669-8.295-11.812-19.334-14.855-30.118-3.289-11.659-3.249-22.986-3.249-29.227 0-23.34 7.974-45.623 21.811-61.732 17.922-20.866 40.576-30.052 40.576-30.052s-7.379 8.603-11.917 19.313c-4.539 10.71-5.781 21.486-5.781 21.486h90.786s5.31-54.249-51.37-54.249c-21.357-.001-47.588 7.412-66.001 18.874z"/></svg>