<svg xmlns="http://www.w3.org/2000/svg" width="1000" height="700" viewBox="0 0 1000 700"><g fill="#434343"><path d="M151.319 400.108c0-7.349 3.58-13.381 3.58-19.222s1.319-9.989 1.885-14.891c3.204-26.571 6.784-42.401 9.611-59.362 2.826-16.772-1.696-23.181 13.758-23.181 16.395 0 19.599 1.319 19.599 9.235 0 3.392 6.031 33.921 8.293 54.653 1.319 11.686 5.276 27.326 7.35 42.402.378 3.017 2.45 16.585 2.45 19.224 0 4.712-.565 6.596-13.945 6.596-6.407 0-4.9-11.308-6.219-18.093-1.885-9.234-16.208-6.406-23.558-6.406-8.292 0-5.654 15.453-8.48 21.107-1.508 3.202-2.639 3.957-9.047 3.957-3.769 0-6.595-2.073-6.595-5.277-.001-4.711 1.318-5.087 1.318-10.742zm27.327-24.876c6.03 0 13.758.94 13.758-5.653 0-9.046-2.073-17.34-3.392-27.139-1.131-7.915-2.073-22.238-6.22-22.238-1.696 0-2.45 1.696-2.639 3.392-.941 5.842-1.884 10.93-3.392 17.716-.377 1.884-1.319 2.448-1.507 5.464 0 1.13.188 2.262.188 3.959 0 6.971-2.073 12.438-2.073 18.846-.001 3.58 1.883 5.653 5.277 5.653zm23.556-2.261c-1.318 0-3.015.941-3.015 2.075 0 1.127.377 1.694 1.318 1.694 1.696 0 2.639-1.131 2.639-2.828.001-.753.001-.941-.942-.941zM263.45 381.263c-1.508-6.406-3.958-12.061-5.466-18.092-.754-2.826-1.318-5.465-2.261-8.293-2.45-7.161-2.45-9.611-3.581-14.888-.188-.943-.942-3.016-2.638-3.016-1.319 0-2.262 3.204-2.262 5.655 0 11.307 1.318 16.773 1.318 24.688 0 3.392-.564 6.594-.564 10.177 0 11.873-.754 21.86-.754 31.284 0 3.015-1.508 4.901-3.581 5.088-2.262.189-3.392 1.697-6.407 1.697-4.711 0-6.974-1.32-7.161-5.656-.188-4.71-.377-14.699-.377-32.413 0-4.524.377-7.914.377-11.684 0-9.048-.754-17.905-.754-28.458l.377-11.119c0-2.074.564-12.25.564-14.7 0-7.349.754-15.642.754-20.542 0-5.277 4.336-7.162 7.163-7.162 1.695 0 8.668-.188 10.93-.188 3.017 0 5.843 2.073 6.785 6.596 1.319 6.784 3.77 13.003 5.277 19.599 1.885 8.104 3.769 13.192 4.522 17.526.565 3.016 2.639 6.596 3.581 9.8.942 3.581.754 9.423 3.957 9.423 1.508 0 2.073-1.131 2.073-2.074.188-11.119.565-19.6.377-27.138-.377-11.308.755-16.585.188-24.877-.565-7.162 2.45-8.104 5.089-8.857 3.203-.942 4.711.188 6.973 0 3.203-.189 6.407 1.508 6.407 6.219 0 4.333-1.131 8.48-1.131 13.003 0 2.827.754 6.596.565 9.234-.754 14.512.565 19.223 0 26.949-1.319 17.717.565 32.792 0 45.986-.754 16.394 0 22.05 0 23.932 0 3.77-1.885 6.596-6.22 6.596-6.973 0-12.438 1.51-16.584-6.783-4.333-9.609-3.768-15.075-7.536-27.512zm24.689-84.241c.564 0 1.129-.377 1.318-1.319.188-.754.942-1.508.188-1.508-.565 0-1.696.754-2.262 1.508-.565.754-.188 1.319.756 1.319zM327.709 394.266c0-3.581.565-6.973.565-11.306 0-10.932-.942-22.615-.942-33.734 0-13.381.377-26.008.377-38.823 0-4.146-1.131-8.857-5.276-8.669-3.581.188-7.351-.377-10.931-.377-3.958 0-6.03-2.261-6.03-5.276 0-2.638-.377-4.334 0-6.973.376-3.205 1.885-4.9 4.335-4.9 6.973.189 11.495-.564 17.526-.376 6.973.188 14.134-.753 21.107 0 5.088.565 10.554.188 15.831 0 2.826-.188 3.769 2.45 3.956 4.523.378 4.146-.941 5.653-1.318 9.046-.189 2.449-2.45 3.581-4.9 3.581-3.769 0-7.727-.377-11.496 0-2.45.188-4.334 1.508-4.334 4.146 0 7.349.754 13.757-.188 21.107-1.131 8.292 1.318 22.236.565 34.675-.565 8.105.564 16.585 0 24.312-.754 9.424.753 17.715 0 26.196-.188 2.263-1.885 4.712-4.9 4.712-3.392 0-6.22-.377-9.987-.755-2.073-.188-3.393-2.449-3.393-4.145-.001-3.018-.567-14.703-.567-16.964zm3.016 13.569c1.32 0 2.64-.754 3.016-2.072.377-1.132-.565-2.452-1.319-1.697-1.696 1.697-2.639 1.131-2.639 2.826-.001.756-.001.943.942.943zM657.16 324.637h-1.035l-.52 3.282-5.355 40.08h12.784l-5.357-40.08zM534.336 305.116v33.859c3.454 0 13.82.518 13.82-16.93 0-17.446-10.366-16.929-13.82-16.929zM534.336 356.077v39.045c3.454 0 13.82 1.38 13.82-19.522 0-20.904-10.366-19.523-13.82-19.523zM376.507 267.944v164.111h473.492v-164.111h-473.492zm78.538 145.66h-43.361v-126.972h18.657v109.697h24.704v17.275zm50.269-107.796h-24.012v33.342h17.275v20.386h-17.275v34.895h24.012v19.175h-42.669v-126.974h42.669v19.176zm33.342 107.796h-22.979v-126.972h16.41c22.285 0 34.032 8.465 34.032 33.687 0 11.747-2.59 18.484-11.573 26.258 0 0 12.958 5.874 12.958 31.096.001 18.656-6.565 35.067-28.848 35.931zm83.263 0h-43.36v-126.972h18.658v109.697h24.702v17.275zm47.159 0l-3.454-25.913h-17.966l-3.456 25.913h-18.137l19.175-126.973h22.801l19.177 126.973h-18.14zm81.192 0h-16.584l-18.139-66.165-1.555-5.872h-1.035v72.037h-17.104v-126.972h16.584l18.141 66.165 1.553 5.872h1.037v-72.037h17.102v126.972zm62.36-83.438h-17.448v-17.447s.692-9.328-7.082-9.328c-6.564 0-6.564 9.328-6.564 9.328v74.801s0 9.33 6.564 9.33c7.774 0 7.082-9.33 7.082-9.33v-17.447h17.448v17.447s.176 27.468-24.875 27.468c-25.05 0-24.878-27.468-24.878-27.468v-74.801s-.172-27.468 24.878-27.468c25.051 0 24.875 27.468 24.875 27.468v17.447z"/></g></svg>