<svg xmlns="http://www.w3.org/2000/svg" width="256" height="256" viewBox="0 0 256 256"><path fill="#A80030" d="M148.082 135.254c-4.238.057.807 2.184 6.343 3.036 1.527-1.193 2.919-2.402 4.155-3.577-3.45.845-6.964.863-10.498.541m22.769-5.676c2.524-3.486 4.368-7.305 5.016-11.25-.565 2.813-2.093 5.246-3.534 7.807-7.93 4.994-.743-2.963-.004-5.986-8.524 10.725-1.17 6.434-1.478 9.429m8.402-21.868c.511-7.639-1.505-5.223-2.185-2.309.796.411 1.421 5.386 2.185 2.309m-47.255-104.407c2.264.406 4.891.72 4.522 1.259 2.478-.543 3.04-1.046-4.522-1.259m4.523 1.259l-1.6.329 1.486-.132.114-.197m70.591 106.043c.25 6.859-2.01 10.187-4.043 16.082l-3.666 1.832c-3 5.822.29 3.695-1.859 8.329-4.682 4.164-14.214 13.034-17.264 13.842-2.226-.048 1.509-2.628 1.995-3.639-6.269 4.309-5.029 6.463-14.616 9.079l-.281-.625c-23.648 11.127-56.498-10.921-56.066-41.003-.255 1.907-.719 1.43-1.243 2.203-1.221-15.478 7.147-31.028 21.262-37.373 13.804-6.837 29.99-4.027 39.877 5.186-5.432-7.115-16.241-14.654-29.055-13.95-12.555.2-24.296 8.176-28.214 16.832-6.432 4.048-7.175 15.607-9.979 17.721-3.771 27.705 7.091 39.678 25.462 53.758 2.891 1.95.817 2.245 1.209 3.731-6.107-2.859-11.696-7.173-16.291-12.459 2.437 3.568 5.072 7.039 8.473 9.766-5.757-1.949-13.443-13.943-15.691-14.434 9.923 17.764 40.255 31.154 56.137 24.509-7.345.271-16.682.15-24.94-2.899-3.469-1.787-8.185-5.482-7.342-6.173 21.674 8.098 44.066 6.132 62.819-8.9 4.772-3.718 9.981-10.036 11.491-10.127-2.269 3.413.386 1.641-1.354 4.652 4.752-7.666-2.068-3.121 4.913-13.239l2.577 3.55c-.959-6.363 7.905-14.093 7.005-24.159 2.032-3.077 2.271 3.313.109 10.396 2.995-7.854.791-9.118 1.559-15.6.83 2.18 1.923 4.495 2.482 6.795-1.952-7.596 2-12.786 2.977-17.2-.963-.427-3.009 3.357-3.477-5.608.068-3.896 1.086-2.041 1.477-3-.764-.439-2.771-3.428-3.993-9.155.889-1.346 2.366 3.489 3.568 3.688-.772-4.555-2.106-8.024-2.161-11.521-3.519-7.35-1.243.982-4.1-3.154-3.744-11.678 3.104-2.709 3.567-8.016 5.673 8.223 8.912 20.964 10.396 26.243-1.129-6.437-2.961-12.671-5.197-18.702 1.721.725-2.775-13.239 2.241-3.993-5.362-19.714-22.935-38.137-39.103-46.78 1.979 1.809 4.477 4.084 3.581 4.438-8.041-4.786-6.629-5.159-7.781-7.182-6.548-2.668-6.978.214-11.318.005-12.348-6.551-14.725-5.856-26.089-9.955l.521 2.414c-8.18-2.724-9.529 1.034-18.37.014-.541-.423 2.831-1.523 5.604-1.928-7.907 1.043-7.537-1.555-15.275.291 1.907-1.341 3.925-2.228 5.957-3.361-6.448.391-15.396 3.752-12.635.695-10.521 4.693-29.2 11.284-39.685 21.111l-.327-2.202c-4.805 5.766-20.95 17.221-22.236 24.688l-1.284.301c-2.5 4.231-4.116 9.031-6.1 13.386-3.271 5.571-4.794 2.144-4.325 3.017-6.432 13.038-9.625 23.993-12.387 32.978 1.969 2.938.05 17.693.791 29.5-3.228 58.316 40.93 114.936 89.196 128.008 7.073 2.532 17.598 2.437 26.546 2.693-10.56-3.019-11.923-1.603-22.212-5.188-7.42-3.491-9.046-7.482-14.3-12.041l2.079 3.675c-10.307-3.647-5.99-4.512-14.377-7.171l2.223-2.899c-3.341-.25-8.846-5.628-10.353-8.604l-3.652.143c-4.394-5.416-6.731-9.32-6.559-12.346l-1.183 2.103c-1.336-2.295-16.152-20.316-8.463-16.123-1.433-1.307-3.328-2.122-5.385-5.863l1.563-1.791c-3.697-4.759-6.807-10.859-6.572-12.891 1.975 2.666 3.343 3.163 4.697 3.618-9.341-23.173-9.863-1.277-16.938-23.592l1.498-.12c-1.15-1.725-1.846-3.604-2.769-5.445l.65-6.491c-6.726-7.777-1.88-33.062-.909-46.933.673-5.639 5.613-11.641 9.372-21.055l-2.29-.396c4.377-7.634 24.988-30.661 34.536-29.473 4.623-5.809-.92-.024-1.822-1.488 10.159-10.512 13.35-7.423 20.207-9.314 7.393-4.391-6.349 1.71-2.839-1.677 12.777-3.264 9.057-7.418 25.729-9.077 1.757 1.002-4.082 1.545-5.548 2.846 10.65-5.21 33.696-4.023 48.669 2.893 17.373 8.116 36.889 32.116 37.659 54.693l.875.237c-.443 8.975 1.375 19.354-1.775 28.889l2.146-4.512m-105.335 30.468l-.591 2.976c2.786 3.786 4.998 7.889 8.56 10.85-2.564-5.001-4.469-7.069-7.969-13.826m6.591-.259c-1.473-1.63-2.346-3.596-3.322-5.553.932 3.441 2.845 6.396 4.629 9.4l-1.307-3.847m116.624-25.348l-.623 1.564c-1.143 8.113-3.609 16.146-7.391 23.591 4.177-7.856 6.882-16.45 8.014-25.155m-92.157-114.2c2.865-1.051 7.047-.577 10.093-1.269-3.966.332-7.914.532-11.81 1.032l1.717.237m-100.691 53.541c.659 6.118-4.604 8.493 1.164 4.459 3.091-6.964-1.208-1.923-1.164-4.459m-6.781 28.318c1.327-4.079 1.568-6.529 2.075-8.891-3.672 4.696-1.689 5.701-2.075 8.891"/></svg>