<svg xmlns="http://www.w3.org/2000/svg" width="256" height="256" viewBox="0 0 256 256"><path fill="#DD4814" d="M256 128c0 70.689-57.305 127.998-128 127.998s-128-57.309-128-127.998c0-70.693 57.307-127.998 128-127.998s128 57.305 128 127.998z"/><path fill="#fff" d="M40.964 110.91c-9.441 0-17.094 7.648-17.094 17.092 0 9.439 7.65 17.086 17.094 17.086 9.438 0 17.086-7.646 17.086-17.086 0-9.443-7.648-17.092-17.086-17.092zm122.017 77.668c-8.177 4.723-10.977 15.17-6.257 23.336 4.717 8.178 15.162 10.977 23.337 6.256 8.173-4.715 10.975-15.16 6.257-23.336-4.716-8.168-15.168-10.971-23.337-6.254v-.002zm-84.895-60.576c0-16.889 8.389-31.809 21.223-40.842l-12.49-20.928c-14.955 9.994-26.077 25.268-30.7 43.154 5.396 4.404 8.846 11.104 8.846 18.615 0 7.508-3.45 14.207-8.846 18.609 4.618 17.893 15.741 33.166 30.7 43.16l12.49-20.93c-12.836-9.028-21.223-23.949-21.223-40.838zm49.914-49.922c26.079 0 47.473 19.998 49.718 45.492l24.353-.359c-1.197-18.822-9.425-35.725-22.057-48.146-6.5 2.457-14.007 2.08-20.493-1.662-6.5-3.75-10.575-10.076-11.688-16.941-6.313-1.745-12.959-2.699-19.832-2.699-11.813 0-22.981 2.775-32.897 7.681l11.872 21.281c6.385-2.977 13.515-4.647 21.024-4.647zm0 99.838c-7.514 0-14.639-1.672-21.027-4.645l-11.873 21.278c9.916 4.916 21.084 7.689 32.9 7.689 6.873 0 13.519-.951 19.832-2.699 1.115-6.867 5.19-13.189 11.688-16.945 6.491-3.746 13.993-4.113 20.493-1.658 12.632-12.428 20.859-29.328 22.057-48.15l-24.356-.359c-2.241 25.499-23.635 45.487-49.714 45.489zm34.973-110.504c8.178 4.721 18.623 1.924 23.341-6.25 4.719-8.177 1.921-18.621-6.252-23.343-8.175-4.716-18.62-1.911-23.344 6.261-4.713 8.168-1.909 18.613 6.255 23.332z"/></svg>