<svg width="256" height="256" viewBox="0 0 256 256" xmlns="http://www.w3.org/2000/svg" preserveAspectRatio="xMidYMid"><defs><linearGradient x1="50%" y1="3.961%" x2="50%" y2="100%" id="a"><stop stop-color="#FDFDFD" offset="0%"/><stop stop-color="#CBCBCB" offset="100%"/></linearGradient><linearGradient x1="50%" y1="3.961%" x2="50%" y2="100%" id="b"><stop stop-color="#B2E198" offset="0%"/><stop stop-color="#04A171" offset="100%"/></linearGradient></defs><circle fill="url(#a)" cx="128" cy="128" r="127.858"/><circle fill="url(#b)" cx="127.858" cy="128.142" r="116.907"/><path d="M100.453 110.097c-1.376 2.12-2.705 4.25-3.988 6.382-1.403-3.862-2.635-7.666-3.684-11.377 3.73-.534 7.695-.956 11.874-1.248-1.419 2.034-2.821 4.116-4.202 6.243zm103.138 7.475c-4.132-3.967-10.039-7.601-17.558-10.803-14.926-6.356-34.918-10.475-56.295-11.596-2.578-.135-5.095-.228-7.529-.277 16.321-19.481 32.083-29.846 41.263-30.195 1.944-.074 3.576.31 4.854 1.141 4.296 2.792 5.488 11.452 3.189 23.166-.454 2.312 1.052 4.555 3.365 5.009 2.313.452 4.555-1.052 5.009-3.365 3.953-20.137-1.577-28.497-6.911-31.965-2.784-1.81-6.093-2.655-9.829-2.513-14.12.536-33.905 15.592-51.957 38.803-7.147.247-14.038.864-20.483 1.826-.707-3.285-1.254-6.469-1.624-9.521-1.619-13.344.367-22.816 5.311-25.338.794-.405 1.663-.638 2.654-.713 4.418-.333 10.652 2.637 17.543 8.359 1.812 1.505 4.502 1.256 6.008-.557 1.505-1.813 1.256-4.503-.557-6.008-8.85-7.349-16.8-10.817-23.633-10.303-2.113.158-4.095.704-5.892 1.62-4.593 2.342-7.732 6.828-9.329 13.332-1.368 5.569-1.562 12.512-.576 20.636.39 3.213.96 6.556 1.694 9.998-5.04 1.062-9.71 2.356-13.897 3.868-18.316 6.616-22.544 15.338-22.866 21.489-.308 5.876 2.7 14.62 18.776 22.911 2.094 1.08 4.668.257 5.748-1.837s.258-4.668-1.837-5.747c-9.248-4.769-14.411-10.192-14.165-14.88.346-6.605 11.416-13.595 30.274-17.534 1.747 6.309 3.99 12.861 6.681 19.505-6.778 12.723-11.723 25.262-14.287 36.416-1.833 7.97-2.368 14.89-1.592 20.567.907 6.631 3.559 11.418 7.882 14.228 2.204 1.433 5.175 2.553 9.078 2.553 5.659 0 13.275-2.357 23.344-9.539 1.918-1.368 2.365-4.033.996-5.951-1.368-1.918-4.033-2.364-5.951-.996-9.925 7.079-18.454 9.613-22.816 6.778-4.652-3.024-5.633-12.642-2.624-25.729 1.995-8.678 5.555-18.296 10.383-28.209 1.048 2.244 2.142 4.489 3.283 6.731 9.717 19.087 21.612 35.694 33.494 46.762 5.984 5.573 11.707 9.497 17.011 11.664 3.218 1.314 6.239 1.971 9.044 1.971 2.596 0 5.008-.563 7.216-1.689 4.43-2.259 7.511-6.521 9.157-12.666 1.409-5.263 1.726-11.827.942-19.512-1.543-15.11-7.252-33.539-16.077-51.891-1.021-2.124-3.571-3.017-5.694-1.997-2.124 1.021-3.017 3.571-1.996 5.694 8.407 17.485 13.834 34.908 15.278 49.06 1.271 12.446-.78 21.309-5.486 23.709-4.942 2.52-13.756-1.438-23.579-10.588-11.17-10.404-22.43-26.168-31.706-44.388-2.121-4.166-4.074-8.34-5.852-12.483 2.206-3.945 4.592-7.903 7.144-11.835 2.602-4.01 5.236-7.789 7.877-11.333.701-.01 1.405-.017 2.115-.019 3.664-.012 7.592.09 11.688.305 20.404 1.07 39.368 4.95 53.398 10.925 12.341 5.256 19.535 11.704 19.245 17.25-.247 4.708-5.968 9.575-15.696 13.352-2.197.853-3.286 3.325-2.433 5.522.656 1.689 2.269 2.724 3.979 2.724.513 0 1.036-.093 1.543-.29 16.905-6.564 20.821-14.967 21.129-20.861.27-5.151-2.04-10.111-6.865-14.743z" fill="#F2F8F6"/><path d="M119.194 129.133c0 5.153 4.174 9.331 9.323 9.331s9.323-4.178 9.323-9.331-4.174-9.331-9.323-9.331-9.323 4.178-9.323 9.331" fill="#F1F8F3"/></svg>