<svg xmlns="http://www.w3.org/2000/svg" width="256" height="256" viewBox="0 0 256 256"><path fill="#543729" d="M251.106 125.395c-13.168-12.653-79.007-20.55-99.782-22.849 1.007-2.376 1.858-4.834 2.568-7.366 2.834-1.24 5.891-2.395 9.055-3.358.381 1.136 2.197 5.49 3.231 7.558 41.777 1.152 43.923-31.047 45.621-39.866 1.661-8.625 1.579-16.959 15.906-32.193-21.348-6.222-52.046 9.643-62.327 33.254-3.868-1.447-7.741-2.519-11.571-3.179-2.745-11.074-17.038-41.922-54.548-41.922-47.495-.004-99.259 39.176-99.259 105.502 0 55.754 38.063 104.613 59.568 104.613 9.394 0 17.474-7.032 19.368-13.337 1.592 4.323 6.471 17.762 8.073 21.183 2.368 5.059 13.318 9.437 18.114 4.186 6.163 3.428 17.47 5.487 23.634-3.641 11.868 2.512 22.361-4.568 22.591-13.014 5.825-.313 8.68-8.488 7.412-15.002-.937-4.794-10.955-21.998-14.859-27.937 7.731 6.288 27.318 8.07 29.7.002 12.468 9.786 31.897 4.65 33.438-3.31 15.152 3.937 32.53-4.709 29.673-15.177 24.34-1.69 21.225-27.584 14.394-34.147z"/><path fill="#00ACEE" d="M183.343 70.168c5.24-10.399 11.827-21.756 20.146-28.78-9.157 3.688-18.196 14.722-23.541 26.515-2.728-1.732-5.493-3.277-8.282-4.627 7.454-15.916 24.782-29.209 43.88-30.25-12.791 11.599-8.252 35.71-18.769 48.473-3.007-3.024-9.917-8.857-13.434-11.331zm-8.269 16.936c.005-.398.154-3.468.434-4.869-.729-.172-5.288-1.066-7.666-1.011-.175 2.986 1.253 8.065 2.664 11.121 9.719-.203 16.734-3.115 20.868-5.789-3.518-1.64-9.518-3.098-14.082-3.967-.514 1.055-1.766 3.738-2.218 4.515z"/><path fill="#2BAF2B" d="M138.97 169.389l.009.05c-1.228-2.655-2.539-5.871-4.101-10.077 6.082 8.85 25.142 4.286 24.144-3.646 9.33 7.021 28.532-1.171 24.166-11.01 9.346 4.351 20.014-4.411 17.621-8.228 15.932 3.07 31.202 6.137 35.996 7.359-3.185 5.193-10.435 8.861-21.371 6.313 5.909 8.046-5.56 17.698-21.532 12.382 3.517 7.9-10.709 15.01-26.873 6.777.204 7.902-20.05 8.811-28.059.08zm31.604-39.945c18.491 1.421 49.075 4.178 68.01 6.83-1.198-6.161-4.464-7.924-14.741-10.685-11.055 1.18-39.101 3.935-53.269 3.855z"/><path fill="#FFCC2F" d="M159.021 155.713c9.33 7.021 28.532-1.17 24.166-11.012 9.346 4.353 20.014-4.408 17.621-8.227-18.839-3.632-38.603-7.277-43.089-7.912 2.723.145 7.228.451 12.853.887 14.17.077 42.216-2.676 53.266-3.856-17.896-4.538-54.438-11.159-79.673-12.793-1.168 1.708-3.318 4.608-7.062 7.687-11.041 23.36-31.044 38.888-53.18 38.888-6.448 0-13.664-1.086-21.755-3.672-5.044 5.404-26.551 9.5-44.005.936 13.843 32.41 45.945 54.046 81.478 54.046 29.926 0 43.198-30.559 40.291-38.644-.704-1.961-3.495-8.473-5.059-12.679 6.087 8.849 25.147 4.281 24.148-3.649z"/><path fill="#CECECE" d="M140.885 94.207c2.642-1.438 11.775-6.973 20.476-9.054-.141-.964-.241-1.937-.307-2.911-5.709 1.366-16.471 5.979-22.639-.376 13.014 3.926 19.509-3.499 29.07-3.499 5.7 0 13.83 1.592 20.241 4.107-5.157-4.761-22.062-19.137-42.998-19.186-4.667 5.667-9.718 17.94-3.843 30.919z"/><path fill="#EF5734" d="M62.169 155.697c8.091 2.586 15.307 3.677 21.755 3.677 22.136 0 42.139-15.527 53.18-38.89-8.166 6.817-22.357 12.651-44.521 12.651 19.74-4.478 36.736-14.315 45.382-28.696-6.08-9.671-12.671-31.071 4.021-47.988-2.566-8.248-15.062-30.024-42.73-30.024-48.282 0-88.296 40.401-88.296 94.548 0 12.816 2.587 24.835 7.209 35.658 17.449 8.564 38.954 4.473 44-.936z"/><path fill="#FFCC2F" d="M76.655 73.257c0 12.315 9.986 22.303 22.305 22.303 12.313 0 22.3-9.987 22.3-22.303s-9.986-22.302-22.3-22.302c-12.318.002-22.305 9.986-22.305 22.302z"/><path fill="#543729" d="M85.605 73.257c0 7.373 5.978 13.352 13.35 13.352 7.378 0 13.353-5.977 13.353-13.352s-5.975-13.352-13.353-13.352c-7.372 0-13.35 5.979-13.35 13.352z"/><path fill="#fff" d="M98.955 62.498c4.298 0 7.782 2.164 7.782 4.836 0 2.671-3.484 4.836-7.782 4.836-4.295 0-7.779-2.165-7.779-4.836 0-2.672 3.484-4.836 7.779-4.836z"/></svg>