<svg xmlns="http://www.w3.org/2000/svg" width="256" height="256" viewBox="0 0 256 256"><path fill="#DE4C36" d="M251.17 116.598l-111.775-111.765c-6.432-6.44-16.871-6.44-23.312 0l-23.21 23.209 29.445 29.443c6.84-2.311 14.686-.762 20.141 4.692 5.477 5.489 7.023 13.404 4.65 20.267l28.377 28.375c6.863-2.365 14.787-.834 20.268 4.657 7.66 7.661 7.66 20.077 0 27.74-7.668 7.666-20.082 7.666-27.75 0-5.766-5.771-7.186-14.233-4.268-21.336l-26.463-26.462-.006 69.64c1.871.925 3.635 2.161 5.189 3.711 7.664 7.659 7.664 20.073 0 27.746-7.666 7.663-20.086 7.663-27.738 0-7.662-7.673-7.662-20.087 0-27.746 1.891-1.891 4.084-3.322 6.422-4.282v-70.287c-2.338-.955-4.527-2.376-6.422-4.28-5.809-5.797-7.203-14.317-4.229-21.446l-29.02-29.027-76.64 76.634c-6.438 6.444-6.438 16.884 0 23.32l111.775 111.767c6.436 6.438 16.873 6.438 23.316 0l111.25-111.248c6.439-6.437 6.439-16.885 0-23.322"/></svg>