<svg xmlns="http://www.w3.org/2000/svg" width="256" height="256" viewBox="0 0 256 256"><path fill="#FBA919" d="M45.323 62.22s4.382 16.91 5.007 22.546c.629 5.638-11.273 18.163-11.273 24.425 0 6.263 2.503 17.537 16.28 23.176 13.783 5.636 15.658 20.038 15.658 28.809l-5.009 25.675s-3.129 41.959 13.782 49.478l16.906 7.514c3.757 0 31.314 11.277 47.598 6.896 16.282-4.387 20.664-9.396 20.664-9.396s16.286 1.252 21.296-13.154c5.009-14.4 8.141-44.464 6.259-58.241-1.877-13.781-4.382-31.94 6.889-38.204 11.279-6.262 23.173-13.774 21.293-20.039-1.877-6.263-11.896-15.031-11.896-15.031s-2.505-15.656-.627-19.415c1.877-3.756 13.147-13.153 6.886-20.04-6.257-6.889-17.536-6.889-17.536-6.889l-14.399 1.25s-24.423-21.918-56.366-20.666c-31.938 1.251-51.982 20.666-51.982 20.666s-10.645-3.757-20.04 0c-9.395 3.753-11.27-.007-9.39 10.64z"/><path fill="#E78724" d="M102.546 155.466s-12.405 18.964-21.498 32.421c-1.407 2.086 9.093 2.227 9.093 2.227l12.405-34.648zM108.455 116.15s-3.739 9.327-5.791 14.271c-2.221 5.379-10.695 8.05-10.695 8.05s4.391-4.607 4.391-16.282c0-4.896 6.325-6.844 6.325-6.844l5.77.805zM104.678 121.423s-7.659 9.116-21.882 4.01c-14.226-5.104-15.683-23.342-15.683-28.448s26.991 5.106 30.637 7.294 10.57 10.942 6.928 17.144zM50.955 23.997s13.129-2.556 21.879 4.375c8.757 6.931 11.303 12.402 11.303 12.402l-14.75 11.694s-7.13-3.305-9.318-12.789c-2.187-9.482-.728-13.861-9.114-15.682zM100.846 95.085c-5.654-8.023-14.969-11.524-22.407-12.104-12.682-.991-18.702 3.491-18.702 3.491s20.771.88 26.757 8.743c11.146 14.634 27.402 15.823 30.007 12.609-3.009.148-6.318-1.341-9.854-4.688-2.215-2.09-4.006-5.502-5.801-8.051zM65.782 123.459s-23.046-7.922-18.666-15.943c4.375-8.024.893-12.397.893-12.397s-12.868 9.606-9.588 19.819c2.014 6.267 5.396 10.805 23.961 19.503 8.902 16.539 1.837 46.312 2.259 46.45.71.236 12.505-5.832 11.698-33.684-.248-8.553-.93-20.228-10.557-23.748zM95.982 38.267c-9.664 4.908-22.905 11.747-22.905 11.747l5.209 2.605c-.495.808-.733 1.288-.733 1.288l5.348 2.432s13.055 9.455 21.055 15.536c-2.669-8.213-10.496-21.112-10.496-21.112s-2.219-5.93 2.522-12.496zM128.082 238.382c-29.7 0-39.762-15.079-39.762-15.079l4.644 11.302c1.755 4.891 20.471 20.109 35.072 20.109"/><path fill="#E78724" d="M91.577 213.113s2.732 16.7 13.673 16.7c9.3 0 12.041-14.109 12.041-17.022l-25.714.322zM73.363 187.925c.974-2.675 4.378-13.495 5.474-23.343 1.309-11.791.831-29.041.831-29.041s-2.918 11.305-5.473 13.134c-2.552 1.823-7.295 14.221-7.295 14.221s-2.541 18.461-3.75 24.666c3.35.669 6.166-1.303 10.213.363zM46.943 114.753s6.2-2.189 8.025-15.684c1.822-13.495-2.191-25.165-2.191-25.165s.366 18.601-1.822 22.249c-2.187 3.645-4.012 4.741-6.564 9.484-2.554 4.744 1.091 7.657 2.552 9.116z"/><path fill="#FDC168" d="M54.346 27.188l-1.264-.803c-3.734.128 1.264.803 1.264.803z"/><path fill="#FBA919" d="M101.027 34.271s-5.836-.973-8.755-5.348c-2.918-4.378-11.186-13.133-24.363-13.23-13.177-.098-26.214 3.502-26.214 3.502l11.382 7.191c1.205-.04 3.31-.022 6.786.093 14.282.475 16.482 14.599 16.482 14.599l50.332-6.931"/><path fill="#fff" d="M105.891 112.293s-6.809 6.81-17.266 4.617c-10.457-2.186-16.779-6.807-17.266-14.832-.486-8.023 2.19-11.184 2.19-11.184s11.671 3.648 17.264 8.513c5.594 4.863 9.728 12.644 15.078 12.886z"/><path fill="#C9C9C9" d="M97.65 109.861s-5.905 2.698-12.505.5c-8.641-2.881-9.216-11.869-9.216-11.869s-5.298 15.556 9.557 18.549c11.923 2.402 18.969-4.506 18.969-4.506l-6.805-2.674z"/><path fill="#463014" d="M101.846 30.972c-.632-13.34 10.305-23.965 14.091-24.418.211 2.26-.209 11.079 3.577 13.79 1.104-7.201 4.832-15.142 19.56-20.343-3.155 8.364-.423 15.372.882 18.618 10.054-9.127 16.829-7.619 16.829-7.619s-6.986 12.058-4.255 19.968c-20.186-1.582-50.585 2.147-50.684.004zM59.05 51.291c-4.817-3.997-1.227-7.706-1.604-12.247-.209-2.415-.399-4.694-1.197-5.954-4.43-6.998-14.889-9.123-14.993-9.143l-4.904-.961 3.25-3.8c.418-.491 13.759-13.222 34.406-6.557 14.441 4.658 25.134 20.453 25.529 21.091l-7.238 3.405c-.084-.135-8.536-14.98-20.928-18.977-10.016-3.23-19.247-.156-23.199 1.858 4.202 1.677 9.697 4.735 13.009 9.962 1.563 2.469 1.827 5.576 2.084 8.587.334 3.986.646 7.748 3.582 10.184l-7.797 2.552zM46.187 109.624s6.068-7.524 7.863-22.167c.709-5.77-.545-17.144-2.555-21.521.366 10.759-2.372 21.521-2.372 21.521s-1.841 19.98-2.936 22.167zM78.187 43.69c-.005-.016-1.95-8.51-7.336-12.8-7.605-6.049-16.887-2.83-16.978-2.802l-1.351-4.166c.45-.144 11.064-3.488 20.841 3.387 9.839 6.912 11.017 13.179 11.121 13.87l-6.297 2.511zM65.245 104.228s-3.184-4.557-2.611-9.57c.284-2.477 1.43-5.018 3.479-5.919 3.808-1.673 5.491 2.643 5.491 2.643s-5.354 1.32-6.359 12.846zM100.205 111.174l.199.389s-9.932 7.452-20.108-.109c-5.448-4.052-4.933-14.073-3.264-18.325 4.341.982 8.021 2.756 11.1 4.826-3.889-3.469-7.291-6.024-7.281-6.082l-4.421-1.253-8.589-2.944c-.108.654-3.243 15.34 5.8 25.347 4.01 4.437 22.801 14.374 31.724-2.618l-5.16.769zM99.272 112.266c5.592 8.508 19.696 3.646 19.45-5.349 0 0-9.425 5.201-17.75-4.375-4.863-5.592-20.44-21.008-41.568-15.887 14.591 3.207 33.906 16.538 39.868 25.611zM57.432 136.282c1.346.776 6.089 5.688 6.091 13.038 0 3.685-.368 22.193-2.19 33.502 2.745 1.782 4.654 2.159 7.387 3.978 1.368-13.096 2.348-32.077 1.889-39.736-.525-8.736-5.198-14.596-9.534-17.096-1.359-.784-2.777-1.551-4.21-2.323-7.427-4.015-15.108-8.167-15.108-15.256 0-5.546 2.156-7.279 4.44-9.12l.243-.198c1.517-1.224 3.229-2.611 4.243-4.89 2.771-6.23 3.226-22.103 0-26.131-1.604-2.008-5.913-8.758-4.677-13.293.473-1.731 1.563-3.014 3.341-3.926 1.877-.961 4.413-1.45 7.541-1.45 6.136 0 12.94 1.869 16.45 2.979 12.55 3.975 27.688 15.444 32.027 18.862l.213.161 2.777 1.932-1.736-2.906c-.109-.182-11.106-18.27-30.777-24.9-3.827-1.29-11.343-3.453-18.731-3.453-4.4 0-8.13.768-11.087 2.281-3.604 1.843-6.04 4.783-7.054 8.499-2.484 9.111 5.604 19.254 5.882 19.577.94 1.686 1.341 13.915-.837 18.81-.3.675-1.118 1.341-2.163 2.178-.325.263-.687.538-1.073.829-3.075 2.32-7.723 5.825-7.723 13.905 0 11.055 11.204 17.049 20.214 21.869 1.475.792 2.887 1.544 4.162 2.278zM59.05 51.291c-4.817-3.997-1.227-7.706-1.604-12.247-.209-2.415-.399-4.694-1.197-5.954-4.43-6.998-14.889-9.123-14.993-9.143l-4.904-.961 3.25-3.8c.418-.491 13.759-13.222 34.406-6.557 14.441 4.658 25.134 20.453 25.529 21.091l-7.238 3.405c-.084-.135-8.536-14.98-20.928-18.977-10.016-3.23-19.247-.156-23.199 1.858 4.202 1.677 9.697 4.735 13.009 9.962 1.563 2.469 1.827 5.576 2.084 8.587.334 3.986.646 7.748 3.582 10.184l-7.797 2.552zM58.896 52.11l-.313-.256c-3.573-2.966-2.938-5.886-2.325-8.711.279-1.303.573-2.651.455-4.033-.196-2.325-.382-4.517-1.085-5.625-4.218-6.666-14.418-8.8-14.518-8.821l-6.132-1.201 4.063-4.752c.072-.089 8.641-8.734 23.146-8.734 3.954 0 8.007.658 12.041 1.959 15.072 4.859 25.825 21.236 25.927 21.4l.437.695-8.568 4.028-.341-.544c-.923-1.572-9.045-14.967-20.536-18.672-2.822-.913-5.791-1.372-8.832-1.372-5.504 0-9.968 1.501-12.345 2.509 3.97 1.788 8.783 4.796 11.831 9.6 1.655 2.616 1.923 5.813 2.185 8.904.322 3.842.629 7.457 3.322 9.693l1.021.844-9.433 3.089zM78.187 43.69c-.005-.016-1.95-8.51-7.336-12.8-7.605-6.049-16.887-2.83-16.978-2.802l-1.351-4.166c.45-.144 11.064-3.488 20.841 3.387 9.839 6.912 11.017 13.179 11.121 13.87l-6.297 2.511zM77.661 44.684l-.188-.836c-.022-.081-1.927-8.288-7.082-12.385-2.936-2.338-6.479-3.526-10.522-3.526-3.154 0-5.5.754-5.759.843l-.695.231-1.81-5.554.695-.224c.31-.098 3.128-.975 7.109-.975 5.257 0 10.228 1.543 14.377 4.457 10.084 7.086 11.314 13.637 11.419 14.361l.091.573-7.635 3.035zm-17.793-18.205c4.318 0 8.277 1.33 11.437 3.837 4.572 3.645 6.728 10.082 7.377 12.389l4.964-1.979c-.45-1.75-2.427-7.007-10.7-12.822-3.959-2.782-8.509-4.192-13.536-4.192-2.757 0-4.897.438-5.957.706l.898 2.765c1.033-.275 3.031-.704 5.517-.704zM104.791 225.805c-2.154 0-4.353-.782-5.877-2.101-1.166-1.004-5.114-4.629-6.851-9.067-.649-1.664-.507-2.991.437-3.946.646-.654 1.995-1.436 4.732-1.436l1.947-.005c2.32-.002 6.228-.002 9.565-.002h3.2c2.084 0 3.577.447 4.432 1.324 1.105 1.135.75 2.575.441 3.335-.536 1.324-2.759 5.649-6.514 9.665-1.344 1.442-3.298 2.233-5.512 2.233zM107.053 112.769l-7.784-.5s1.99 3.507 3.277 8.039c1.459 5.13-1.327 12.626-1.327 12.626s10.375-11.748 5.834-20.165zM97.339 246.35c-27.693-2.127-37.439-28.295-37.439-33.746l7.231.005-3.616-.005h3.616c.036 2.356 7.396 24.741 30.759 26.536l-.551 7.21z"/><path fill="#fff" d="M89.555 199.468c-.432-2.502-.478-4.872.05-7.204-2.104-1.582-5.882-2.168-8.716-3.089-2.315-1.466-14.173 1.503-22.775-8.906-10.779-13.037-8.509-20.818-8.509-20.818-2.766 3.068-5.44 1.899-9.654 16.218-4.218 14.318 1.981 24.3 13.532 34.323 5.459 4.731 13.172 6.687 19.811 7.43-2.223-2.232 3.798-2.455 7.945-4.01-.329-3.348.226-6.603 2.724-9.221 1.507-1.581 3.442-2.522 5.454-3.274l.316-.75c-.069-.229-.135-.458-.178-.699z"/><path fill="#C9C9C9" d="M81.185 213.325c-.243-.702-.421-1.421-.601-2.142-.19-.788-1.146-3.02.034-.47-.305-.655-.505-1.323-.649-2.005-18.707-.022-34.982-12.868-31.842-39.875-2.447-3.252-5.877 6.557-5.877 6.557s-9.366 27.198 14.823 37.736c8.059 3.517 15.182 6.037 16.863 5.019 3.5.711 6.661-1.729 7.846-3.337-.222-.49-.425-.983-.597-1.483z"/><path fill="#463014" d="M89.221 195.55c.029-2.277.493-4.486 1.598-6.687l.248-.442c-7.2-.062-15.493-.748-22.553-3.578-7.759-3.104-17.468-13.725-19.137-26.202 0 0-14.613 11.282-10.32 35.418 4.03 22.669 23 30.058 44.632 31.31.012-.146-2.434-5.195-1.659-8.291-12.284.894-26.021-3.853-32.652-14.764-6.067-9.986-4.368-27.036-1.872-29.534 6.085 19.204 27.985 23.107 41.715 22.77zM91.486 181.805c-3.891 11.423-11.846 20.668-11.846 20.668s10.939-.498 11.546-2.432c.443-1.428 9.873-23.505 13.495-49.359-3.404 5.59-12.863 30.143-13.195 31.123z"/><path fill="#E78724" d="M153.455 155.466s12.399 18.964 21.497 32.421c1.407 2.086-9.098 2.227-9.098 2.227l-12.399-34.648zM147.55 116.15s3.739 9.327 5.782 14.271c2.223 5.379 10.7 8.05 10.7 8.05s-4.396-4.607-4.396-16.282c0-4.896-6.32-6.844-6.32-6.844l-5.766.805zM151.327 121.423s7.659 9.116 21.882 4.01c14.226-5.105 15.682-23.342 15.682-28.448s-26.99 5.106-30.639 7.294c-3.643 2.192-10.572 10.942-6.925 17.144zM205.05 23.997s-13.132-2.556-21.884 4.375l-11.307 12.402 14.755 11.692s7.129-3.305 9.322-12.789c2.184-9.48.725-13.859 9.114-15.68zM155.157 95.085c5.652-8.023 14.966-11.524 22.406-12.104 12.685-.991 18.7 3.491 18.7 3.491s-20.771.88-26.757 8.743c-11.146 14.634-27.397 15.823-30.002 12.609 3.004.148 6.315-1.341 9.854-4.688 2.212-2.09 4.006-5.502 5.799-8.051zM190.219 123.459s23.045-7.922 18.668-15.943c-4.375-8.024-.896-12.397-.896-12.397s12.868 9.606 9.589 19.819c-2.014 6.267-5.396 10.805-23.962 19.503-8.902 16.539-1.841 46.312-2.259 46.45-.707.236-12.5-5.832-11.695-33.684.245-8.553.927-20.228 10.555-23.748zM160.022 38.267c9.659 4.908 22.9 11.747 22.9 11.747l-5.209 2.605c.498.808.736 1.288.736 1.288l-5.348 2.432s-13.053 9.455-21.053 15.536c2.664-8.213 10.491-21.112 10.491-21.112s2.225-5.93-2.517-12.496zM127.921 238.382c29.697 0 39.757-15.079 39.757-15.079l-4.637 11.302c-1.755 4.891-20.475 20.109-35.072 20.109"/><path fill="#E78724" d="M164.428 213.113s-2.736 16.7-13.678 16.7c-9.295 0-12.036-14.109-12.036-17.022l25.714.322zM182.637 187.925c-.973-2.675-4.378-13.495-5.476-23.343-1.307-11.791-.829-29.041-.829-29.041s2.918 11.305 5.473 13.134c2.555 1.823 7.296 14.221 7.296 14.221s2.54 18.461 3.745 24.666c-3.346.669-6.159-1.303-10.209.363zM209.06 114.753s-6.2-2.189-8.023-15.684c-1.822-13.495 2.189-25.165 2.189-25.165s-.366 18.601 1.82 22.249c2.19 3.646 4.014 4.741 6.565 9.484 2.553 4.741-1.092 7.657-2.551 9.116z"/><path fill="#FDC168" d="M201.654 27.188l1.269-.803c3.734.128-1.269.803-1.269.803z"/><path fill="#FBA919" d="M154.973 34.271s5.841-.973 8.755-5.348c2.918-4.378 11.188-13.133 24.363-13.23 13.178-.098 26.216 3.502 26.216 3.502l-11.384 7.191c-1.202-.04-3.305-.022-6.791.093-14.277.475-16.478 14.599-16.478 14.599l-50.327-6.931"/><path fill="#fff" d="M150.111 112.293s6.81 6.81 17.264 4.617c10.457-2.186 16.779-6.807 17.266-14.832.486-8.023-2.186-11.184-2.186-11.184s-11.673 3.648-17.264 8.513c-5.593 4.864-9.727 12.644-15.08 12.886z"/><path fill="#C9C9C9" d="M158.351 109.861s5.906 2.698 12.504.5c8.644-2.881 9.219-11.869 9.219-11.869s5.295 15.556-9.564 18.549c-11.913 2.402-18.966-4.506-18.966-4.506l6.807-2.674z"/><path fill="#463014" d="M196.952 51.291c4.816-3.997 1.226-7.706 1.607-12.247.206-2.415.396-4.694 1.192-5.954 4.435-6.998 14.889-9.123 14.998-9.143l4.907-.961-3.248-3.8c-.423-.491-13.762-13.222-34.411-6.557-14.438 4.658-25.134 20.453-25.529 21.091l7.238 3.405c.086-.135 8.538-14.98 20.93-18.977 10.014-3.23 19.245-.156 23.2 1.858-4.205 1.677-9.7 4.735-13.012 9.962-1.563 2.469-1.825 5.576-2.08 8.587-.336 3.986-.651 7.748-3.586 10.184l7.794 2.552zM209.813 109.624s-6.065-7.524-7.863-22.167c-.705-5.77.543-17.144 2.552-21.521-.363 10.759 2.375 21.521 2.375 21.521s1.846 19.98 2.936 22.167zM177.818 43.69c.002-.016 1.947-8.51 7.336-12.8 7.604-6.049 16.887-2.83 16.973-2.802l1.351-4.166c-.45-.144-11.06-3.488-20.841 3.387-9.839 6.912-11.014 13.179-11.123 13.87l6.304 2.511zM190.757 104.228s3.185-4.557 2.607-9.57c-.28-2.477-1.428-5.018-3.476-5.919-3.807-1.673-5.493 2.643-5.493 2.643s5.357 1.32 6.362 12.846zM155.8 111.174l-.199.389s9.925 7.452 20.102-.109c5.452-4.052 4.937-14.073 3.262-18.325-4.334.982-8.016 2.756-11.096 4.826 3.891-3.469 7.296-6.024 7.279-6.082l4.423-1.253 8.589-2.944c.109.654 3.243 15.342-5.805 25.347-4.007 4.438-22.8 14.374-31.718-2.616l5.163.767zM156.728 112.266c-5.591 8.508-19.693 3.646-19.45-5.349 0 0 9.428 5.201 17.755-4.375 4.858-5.592 20.44-21.008 41.568-15.887-14.592 3.207-33.908 16.538-39.873 25.611zM198.573 136.282c-1.346.776-6.091 5.688-6.091 13.038-.003 3.685.363 22.193 2.19 33.502-2.745 1.782-4.654 2.159-7.387 3.978-1.368-13.096-2.352-32.077-1.891-39.736.522-8.736 5.195-14.596 9.534-17.096 1.356-.784 2.777-1.551 4.211-2.323 7.426-4.015 15.109-8.167 15.109-15.256 0-5.546-2.161-7.279-4.44-9.12l-.243-.198c-1.512-1.224-3.232-2.611-4.243-4.89-2.771-6.23-3.228-22.103-.005-26.131 1.606-2.008 5.918-8.758 4.682-13.293-.478-1.731-1.568-3.014-3.343-3.926-1.88-.961-4.411-1.45-7.539-1.45-6.134 0-12.943 1.869-16.45 2.979-12.55 3.975-27.688 15.444-32.031 18.862l-.209.161-2.777 1.932 1.736-2.906c.108-.182 11.104-18.27 30.774-24.9 3.83-1.29 11.344-3.453 18.732-3.453 4.402 0 8.127.768 11.089 2.281 3.6 1.843 6.036 4.783 7.052 8.499 2.481 9.111-5.606 19.254-5.88 19.577-.942 1.686-1.345 13.915.832 18.81.298.675 1.118 1.341 2.164 2.178.327.263.687.538 1.077.829 3.072 2.32 7.718 5.825 7.718 13.905 0 11.055-11.204 17.049-20.207 21.869-1.478.792-2.893 1.544-4.164 2.278zM185.207 49.99c-1.784-3.018-6.339-8.845-16.843-13.968-11.724-5.716-25.291-8.616-40.332-8.623v-.002h-.063c-15.041.007-28.614 2.909-40.33 8.621-10.507 5.122-15.062 10.95-16.846 13.968l-.766 1.012 8.995 2.001.287-.36.149-.331c.139-.596 1.346-3.806 11.373-8.694 10.723-5.229 23.228-7.881 37.166-7.885 13.938.004 26.438 2.656 37.163 7.885 10.03 4.891 11.239 8.099 11.375 8.694l.15.331.284.36 8.998-2.001-.76-1.008zM196.952 51.291c4.816-3.997 1.226-7.706 1.607-12.247.206-2.415.396-4.694 1.192-5.954 4.435-6.998 14.889-9.123 14.998-9.143l4.907-.961-3.248-3.8c-.423-.491-13.762-13.222-34.411-6.557-14.438 4.658-25.134 20.453-25.529 21.091l7.238 3.405c.086-.135 8.538-14.98 20.93-18.977 10.014-3.23 19.245-.156 23.2 1.858-4.205 1.677-9.7 4.735-13.012 9.962-1.563 2.469-1.825 5.576-2.08 8.587-.336 3.986-.651 7.748-3.586 10.184l7.794 2.552zM187.682 49.021l1.017-.844c2.697-2.236 2.997-5.851 3.324-9.693.262-3.091.534-6.289 2.187-8.904 3.043-4.801 7.861-7.81 11.83-9.6-2.375-1.008-6.841-2.507-12.348-2.507-3.041 0-6.005.461-8.832 1.372-11.491 3.705-19.614 17.1-20.532 18.669l-.343.544-8.566-4.028.437-.696c.101-.161 10.851-16.539 25.923-21.397 4.032-1.304 8.084-1.959 12.043-1.959 14.507 0 23.075 8.648 23.148 8.734l4.063 4.75-6.135 1.203c-.102.021-10.3 2.155-14.521 8.821-.702 1.108-.886 3.297-1.084 5.625-.115 1.382.173 2.732.457 4.033.614 2.825 1.245 5.748-2.327 8.711l-.313.256-9.428-3.09zM177.818 43.69c.002-.016 1.947-8.51 7.336-12.8 7.604-6.049 16.887-2.83 16.973-2.802l1.351-4.166c-.45-.144-11.06-3.488-20.841 3.387-9.839 6.912-11.014 13.179-11.123 13.87l6.304 2.511zM170.714 41.646l.086-.573c.104-.724 1.339-7.275 11.421-14.361 4.146-2.914 9.116-4.457 14.375-4.457 3.986 0 6.8.875 7.113.975l.693.224-1.807 5.555-.698-.232c-.261-.089-2.604-.843-5.761-.843-4.041 0-7.582 1.185-10.522 3.526-5.155 4.1-7.064 12.304-7.082 12.385l-.188.836-7.63-3.035zm30.94-14.458l.898-2.765c-1.058-.271-3.202-.706-5.962-.706-5.022 0-9.577 1.41-13.531 4.192-8.277 5.816-10.253 11.07-10.7 12.823l4.964 1.979c.649-2.309 2.8-8.743 7.382-12.389 3.154-2.51 7.111-3.838 11.427-3.838 2.486-.005 4.486.424 5.522.704zM145.695 223.572c-3.754-4.018-5.977-8.341-6.514-9.668-.309-.757-.659-2.197.443-3.332.857-.877 2.346-1.327 4.43-1.327h3.2c3.341 0 7.245 0 9.563.003l1.95.004c2.736 0 4.082.782 4.729 1.435.943.954 1.089 2.284.438 3.945-1.741 4.443-5.687 8.068-6.853 9.07-1.527 1.32-3.725 2.103-5.875 2.103-2.206 0-4.16-.791-5.511-2.233zM148.952 112.769l7.775-.5s-1.986 3.507-3.272 8.039c-1.455 5.13 1.329 12.626 1.329 12.626s-10.375-11.748-5.832-20.165z"/><path fill="#E78724" d="M128.002 84.987c-4.959 0-11.425-.138-16.276-3.624 0 0 6.352 11.137 16.268 11.137l.009-1.408.007 1.408c9.919 0 16.271-11.137 16.271-11.137-4.853 3.487-11.324 3.624-16.279 3.624z"/><path fill="#463014" d="M141.657 84.935c-4.976 3.009-9.416 4.053-13.655 4.144-4.238-.093-8.679-1.135-13.654-4.144 0 0 7.243 8.838 13.621 8.905v.006l.033-.003.039.003v-.006c6.368-.068 13.616-8.905 13.616-8.905zM158.664 246.35l-.555-7.209c23.359-1.795 30.718-24.182 30.759-26.536h7.229c.004 5.45-9.743 31.618-37.433 33.745z"/><path fill="#fff" d="M166.445 199.468c.437-2.502.478-4.872-.048-7.204 2.107-1.582 5.88-2.168 8.714-3.089 2.316-1.466 14.178 1.503 22.779-8.906 10.78-13.037 8.505-20.818 8.505-20.818 2.766 3.068 5.445 1.899 9.659 16.218 4.218 14.318-1.986 24.3-13.536 34.323-5.457 4.731-13.173 6.687-19.81 7.43 2.223-2.232-3.798-2.455-7.945-4.01.332-3.348-.225-6.603-2.723-9.221-1.505-1.581-3.44-2.522-5.454-3.274l-.314-.75c.069-.229.13-.458.173-.699z"/><path fill="#C9C9C9" d="M174.816 213.325c.243-.702.42-1.421.598-2.142.195-.788 1.149-3.02-.027-.47.3-.655.5-1.323.646-2.005 18.707-.022 34.983-12.868 31.836-39.875 2.452-3.252 5.882 6.557 5.882 6.557s9.366 27.198-14.822 37.736c-8.06 3.517-15.183 6.037-16.864 5.019-3.504.711-6.663-1.729-7.845-3.337.218-.49.426-.983.596-1.483z"/><path fill="#463014" d="M166.779 195.55c-.024-2.277-.493-4.486-1.593-6.687l-.25-.442c7.2-.062 15.491-.748 22.55-3.578 7.759-3.104 17.469-13.725 19.139-26.202 0 0 14.611 11.282 10.32 35.418-4.031 22.669-23 30.058-44.632 31.31-.014-.146 2.435-5.195 1.662-8.291 12.279.894 26.016-3.853 32.649-14.764 6.066-9.986 4.366-27.036 1.871-29.534-6.081 19.204-27.986 23.107-41.716 22.77zM175.516 201.241c-2.584-2.796-7.334-6.128-18.293-6.128 0 0-20.772-.011-29.182-.018h-.077c-8.407.007-29.187.018-29.187.018-10.954 0-15.704 3.332-18.289 6.128-3.768 4.063-4.358 9.723-1.752 16.791 6.928 18.817 16.654 37.94 49.228 37.966v.002l.036-.002.036.002v-.002c32.573-.03 42.305-19.148 49.229-37.966 2.608-7.073 2.014-12.727-1.749-16.791zm-5.075 15.47c-3.301 9.453-12.164 32.325-42.441 32.361-30.281-.038-39.141-22.913-42.44-32.361-1.827-5.243-1.689-9.122.427-11.533 1.441-1.646 4.759-3.614 12.318-3.614l7.897-.005c5.825-.004 13.139-.009 21.8-.013 8.662.004 15.98.009 21.803.013l7.894.005c7.561 0 10.879 1.966 12.32 3.614 2.111 2.413 2.25 6.29.422 11.533zM164.514 181.805c3.891 11.423 11.841 20.668 11.841 20.668s-10.934-.498-11.541-2.432c-.44-1.428-9.87-23.505-13.49-49.359 3.399 5.59 12.858 30.143 13.19 31.123z"/></svg>