<svg xmlns="http://www.w3.org/2000/svg" width="256" height="256" viewBox="0 0 256 256"><path fill="#D34A47" d="M159.298 248.282l2.454-40.928 6.782-11.577s-15.437 6.315-41.277 6.315l-41.043-6.197 7.602 12.627 2.687 39.76c0 4.264 14.057 7.718 31.398 7.718 17.337 0 31.397-3.454 31.397-7.718M151.548 57.16l5.159-20.377 28.545-30.041-7.521-6.409-30.227 32-5.979 24.346c-4.341-.146-8.866-.227-13.523-.227-31.831 0-57.641 3.629-57.641 8.102 0 4.474 25.807 8.101 57.641 8.101 31.832 0 57.637-3.627 57.637-8.101-.005-3.292-14-6.13-34.091-7.394"/><path fill="#fff" d="M148.553 68.57s-1.118.249-4.405.266c-3.281.014-5.613-.021-6.545-.868-.25-.229-.387-.679-.387-.981.005-.582.418-.925.945-1.141l.496.779c-.219.075-.342.164-.342.256 0 .443 3.359.745 5.933.712 2.57-.032 5.677-.241 5.677-.679 0-.134-.231-.256-.641-.354l.495-.775c.664.207 1.246.606 1.246 1.299-.004 1.178-1.504 1.354-2.472 1.486"/><path fill="#D34A47" d="M185.198 6.8c.718-.828-.373-2.951-2.433-4.735-2.063-1.785-4.317-2.562-5.036-1.731-.718.831.373 2.951 2.437 4.736 2.059 1.784 4.313 2.558 5.032 1.73M157.925 148.313c-.677-6.509 14.236-15.938 10.409-16.238-8.241.471-12.341 9.656-16.486 19.277-1.519 3.524-6.718 18.562-10.127 16.711-3.409-1.85 4.416-14.214 6.613-21.557-2.531 1.856-11.818 9.065-14.209 2.312-3.85 3.268-12.068 5.036-11.141-3.543-2.046 3.625-6.639 8.684-12.152 6.584-7.239-2.764 4.195-25.826 7.038-24.663 2.846 1.164-.572 6.417-1.468 8.458-1.968 4.491-4.241 10.132-2.723 11.291 2.603 1.982 9.687-7.491 9.843-7.697 1.325-1.75 5.098-13.2 8.142-11.886 3.04 1.315-7.589 16.434-3.616 19.436.805.604 4.082-.375 6.077-2.532 1.291-1.397.846-4.488 5.15-14.752 4.3-10.259 8.136-23.036 11.086-22.063 2.952.973.521 7.531-.539 9.978-4.968 11.476-13.552 30.434-9.504 28.995 4.05-1.435 6.156-1.519 10.129-6.159 3.969-4.641 3.782-12.289 6.428-12.126 2.646.162 2.2 2.617 1.56 4.48 2.604-2.975 12.336-9.25 14.686-3.036 2.782 7.353-13.927 17.978-9.759 17.432 4.06-.527 10.641-4.695 13.45-8.486l7.736-69.526s-7.782 6.439-57.291 6.439c-49.512 0-56.486-6.304-56.486-6.304l6.584 63.463c3.493-9.934 11.793-30.024 24.875-29.35 5.95.307 13.891 11.764 7.086 12.152-2.882.163-3.172-5.721-6.581-6.584-2.462-.623-5.889 1.378-8.103 3.545-4.416 4.322-13.916 21.375-12.661 29.878 1.6 10.836 14.959-3.769 17.218-8.104 1.591-3.053 2.668-12.104 6.15-11.151 3.479.949-.307 10.287-2.83 18.547-2.834 9.268-4.325 19.052-7.877 17.927-3.553-1.125 2.234-13.096 2.025-15.19-3.342 3.077-9.493 10.882-17.368 7.021l4.091 39.408s10.868 8.586 43.604 8.586c32.738 0 44.009-8.452 44.009-8.452l5.077-45.647c-4.154 4.041-17.304 11.224-18.145 3.126"/></svg>