<svg xmlns="http://www.w3.org/2000/svg" width="256" height="256" viewBox="0 0 256 256"><path fill="#E44D26" d="M218.684 50.31l-16.522 185.1-74.273 20.59-74.066-20.562-16.507-185.128h181.368z"/><path fill="#F16529" d="M128 240.262l60.015-16.64 14.12-158.175h-74.135v174.815z"/><path fill="#EBEBEB" d="M95.88 110.858h32.12v-22.705h-56.935l.544 6.091 5.58 62.57h50.81v-22.706h-30.045l-2.074-23.25zm5.117 57.309h-22.793l3.182 35.651 46.51 12.912.104-.03v-23.624l-.1.026-25.287-6.827-1.616-18.108z"/><path d="M54.191 0h11.538v11.4h10.556v-11.4h11.539v34.522h-11.539v-11.56h-10.555v11.56h-11.538l-.001-34.522zm48.806 11.448h-10.158v-11.448h31.86v11.448h-10.163v23.074h-11.539v-23.074zm26.758-11.448h12.032l7.4 12.13 7.394-12.13h12.036v34.522h-11.491v-17.111l-7.938 12.274h-.198l-7.944-12.274v17.111h-11.288v-34.522h-.003zm44.605 0h11.542v23.111h16.227v11.412h-27.769v-34.523z"/><path fill="#fff" d="M127.922 156.814h27.959l-2.636 29.447-25.323 6.835v23.622l46.547-12.9.341-3.836 5.336-59.776.554-6.097h-52.777v22.705h-.001zm0-46.012v.056h54.844l.455-5.104 1.035-11.511.542-6.091h-56.876v22.65z"/></svg>