<svg xmlns="http://www.w3.org/2000/svg" width="256" height="256" viewBox="0 0 256 256"><path fill="#FFAA2A" d="M0 2.668h256v250.664h-256z"/><path fill="#251200" d="M93.389 130.277h22.69l-11.345-44.001-11.345 44.001zm-74.021-107.981v211.536h217.586v-211.536h-217.586zm109.164 156.225l-8.301-28.595h-30.715l-8.302 28.595h-21.032l29.614-101.099v-11.069h28.225l33.766 112.171h-23.254v-.003zm55.902 0h-22.69v-85.325h22.69v85.325zm-11.206-95.563c-6.496 0-11.764-5.203-11.764-11.622 0-6.418 5.268-11.624 11.764-11.624 6.495 0 11.759 5.203 11.759 11.624-.001 6.417-5.264 11.622-11.759 11.622z"/></svg>