<svg xmlns="http://www.w3.org/2000/svg" width="256" height="256" viewBox="0 0 256 256"><path fill="#EB43A3" d="M0 3.334h256v249.332h-256z"/><path fill="#412534" d="M19.5 23.351h216.486v209.298h-216.486z"/><g fill="#EB43A3"><path d="M98.769 74.644v105.632h-19.278v-105.632h19.278zM184.182 68.999v89.804c0 7.837.313 16.303.63 21.475h-17.239l-.781-12.07h-.313c-4.546 8.466-13.796 13.796-24.921 13.796-18.18 0-32.598-15.516-32.598-39.027-.156-25.548 15.827-40.75 34.166-40.75 10.502 0 18.022 4.39 21.475 10.033h.314v-43.26h19.267zm-19.278 66.768c0-1.568-.156-3.445-.468-5.014-1.726-7.522-7.837-13.634-16.614-13.634-12.382 0-19.276 10.97-19.276 25.233 0 13.948 6.895 24.135 19.12 24.135 7.834 0 14.731-5.328 16.613-13.635.471-1.723.63-3.604.63-5.641l-.005-11.444z"/></g></svg>