<svg xmlns="http://www.w3.org/2000/svg" width="256" height="256" viewBox="0 0 256 256"><path fill="#F7DF1E" d="M0 0h256v256h-256v-256z"/><path d="M67.312 213.932l19.591-11.854c3.779 6.7 7.221 12.368 15.466 12.368 7.902 0 12.887-3.091 12.887-15.118v-81.8h24.059v82.137c0 24.918-14.606 36.259-35.913 36.259-19.248.001-30.421-9.965-36.09-21.992M152.382 211.354l19.586-11.341c5.159 8.418 11.859 14.603 23.716 14.603 9.969 0 16.325-4.982 16.325-11.857 0-8.247-6.529-11.17-17.527-15.979l-6.014-2.579c-17.354-7.387-28.868-16.668-28.868-36.255 0-18.045 13.746-31.793 35.229-31.793 15.294 0 26.294 5.327 34.193 19.248l-18.731 12.027c-4.123-7.389-8.589-10.312-15.464-10.312-7.045 0-11.514 4.468-11.514 10.312 0 7.218 4.469 10.138 14.779 14.606l6.014 2.575c20.448 8.768 31.962 17.699 31.962 37.805 0 21.654-17.014 33.509-39.868 33.509-22.339.005-36.775-10.648-43.818-24.569"/></svg>