<svg xmlns="http://www.w3.org/2000/svg" width="256" height="256" viewBox="0 0 256 256"><g fill="#8CC84B"><path d="M117.518 2.73c6.35-3.633 14.613-3.648 20.959 0 31.904 18.03 63.823 36.029 95.726 54.071 6 3.381 10.016 10.059 9.952 16.971v108.472c.046 7.2-4.365 14.036-10.695 17.339-31.805 17.93-63.589 35.882-95.385 53.809-6.479 3.707-14.914 3.421-21.188-.588-9.537-5.525-19.087-11.023-28.618-16.546-1.95-1.159-4.146-2.086-5.523-3.973 1.216-1.641 3.392-1.846 5.155-2.562 3.981-1.269 7.636-3.3 11.293-5.271.925-.632 2.052-.391 2.938.178 8.154 4.673 16.236 9.481 24.416 14.111 1.745 1.007 3.512-.33 5.002-1.162 31.21-17.636 62.455-35.209 93.655-52.853 1.159-.557 1.796-1.784 1.7-3.052.022-35.782.007-71.567.012-107.35.134-1.438-.7-2.761-1.998-3.347-31.691-17.846-63.368-35.723-95.055-53.575-1.132-.771-2.596-.775-3.732-.005-31.686 17.862-63.356 35.754-95.042 53.601-1.291.588-2.164 1.89-2.01 3.332.005 35.782 0 71.568 0 107.359-.108 1.264.573 2.466 1.723 3.009 8.457 4.796 16.923 9.555 25.387 14.337 4.764 2.563 10.618 4.086 15.868 2.122 4.637-1.663 7.882-6.391 7.796-11.312.045-35.572-.022-71.152.034-106.719-.116-1.579 1.382-2.885 2.918-2.736 4.063-.028 8.132-.053 12.193.012 1.695-.04 2.861 1.661 2.652 3.253-.016 35.8.043 71.598-.029 107.396.014 9.543-3.905 19.925-12.732 24.591-10.868 5.632-24.31 4.438-35.05-.964-9.298-4.639-18.173-10.12-27.305-15.086-6.346-3.289-10.732-10.152-10.689-17.348v-108.47c-.065-7.057 4.107-13.856 10.294-17.188 31.796-17.945 63.587-35.902 95.378-53.856zM145.256 77.868c13.868-.891 28.717-.528 41.196 6.302 9.661 5.237 15.016 16.225 15.184 26.957-.268 1.448-1.781 2.246-3.161 2.146-4.025-.004-8.048.056-12.075-.027-1.704.065-2.695-1.509-2.911-3.017-1.157-5.136-3.957-10.221-8.789-12.699-7.423-3.715-16.027-3.528-24.118-3.452-5.906.314-12.259.826-17.264 4.299-3.843 2.632-5.012 7.945-3.637 12.221 1.291 3.071 4.837 4.063 7.736 4.977 16.714 4.37 34.424 3.935 50.816 9.688 6.789 2.347 13.43 6.903 15.753 14.01 3.038 9.523 1.704 20.907-5.068 28.555-5.495 6.291-13.503 9.719-21.482 11.58-10.618 2.366-21.641 2.427-32.427 1.375-10.137-1.154-20.691-3.82-28.519-10.728-6.691-5.813-9.964-14.868-9.639-23.611.075-1.476 1.548-2.502 2.961-2.384 4.05-.034 8.103-.044 12.155.009 1.618-.118 2.817 1.281 2.899 2.805.75 4.896 2.591 10.031 6.854 12.932 8.236 5.313 18.571 4.95 27.998 5.096 7.812-.344 16.58-.448 22.955-5.614 3.361-2.945 4.359-7.872 3.452-12.108-.986-3.58-4.731-5.25-7.945-6.337-16.496-5.218-34.405-3.327-50.746-9.229-6.632-2.346-13.046-6.776-15.596-13.591-3.555-9.645-1.927-21.574 5.56-28.961 7.303-7.349 17.837-10.179 27.858-11.194z"/></g></svg>