<svg enable-background="new 0 0 256 256" height="256" viewBox="0 0 256 256" width="256" xmlns="http://www.w3.org/2000/svg"><path d="m0 89.609h255.733v85.245h-127.866v14.208h-56.83v-14.208h-71.037zm14.208 71.037h28.415v-42.623h14.206v42.623h14.208v-56.83h-56.83v56.83zm71.036-56.83v71.037h28.415v-14.207h28.415v-56.83zm28.415 14.208h14.208v28.414h-14.208zm42.623-14.208v56.83h28.413v-42.623h14.209v42.623h14.205v-42.623h14.209v42.623h14.207v-56.83z" fill="#cb3837"/><g fill="#fff"><path d="m14.208 160.646h28.415v-42.622h14.206v42.622h14.209v-56.83h-56.83z"/><path d="m85.244 103.816v71.037h28.415v-14.207h28.415v-56.83zm42.623 42.622h-14.208v-28.414h14.208z"/><path d="m156.282 103.816v56.83h28.413v-42.622h14.209v42.622h14.205v-42.622h14.209v42.622h14.207v-56.83z"/></g></svg>