<svg xmlns="http://www.w3.org/2000/svg" width="256" height="256" viewBox="0 0 256 256"><path fill="#7FBAFB" d="M0 2.134h256v251.731h-256z"/><path fill="#090058" d="M20.359 22.154h215.281v211.696h-215.281z"/><g><path fill="#7FBAFB" d="M61.866 73.084s16.187-.43 29.511-.43c13.462 0 23.062 3.168 29.51 8.736 6.159 5.26 10.313 14.225 10.313 24.434s-3.15 18.561-8.882 24.436c-7.45 7.576-16.13 12.062-30.941 12.682-4.091.172-7.877.213-7.877.213v33.182h-21.632l-.002-103.253zm21.629 51.687c2.351.229 3.823.119 7.305.078 11.604-.143 18.766-7.195 18.766-17.867 0-9.588-5.904-17.459-17.045-17.867-4.438-.162-9.025 0-9.025 0v35.656h-.001zM139.452 153.221c4.361 2.676 14.647 6.682 21.661 6.682 7.164 0 10.125-2.525 10.125-6.461 0-3.941-2.336-8.082-11.216-11.076-15.736-5.357-21.809-11.771-21.654-20.75 0-14.496 12.15-25.369 31-25.369 8.88 0 15.973 2.904 20.641 5.268v17.404c-3.43-1.893-13.32-6.123-19.858-6.123-5.771 0-9.041 2.365-9.041 6.301 0 3.627 2.963 5.516 12.309 8.828 14.489 5.039 20.563 12.445 20.716 23.789 0 14.342-11.055 25.744-33.024 25.053-7.537-.238-15.892-3.221-21.657-6.361v-17.185h-.002z"/></g></svg>