<svg xmlns="http://www.w3.org/2000/svg" width="256" height="256" viewBox="0 0 256 256"><radialGradient id="a" cx="885.24" cy="1404.639" r="363.057" gradientTransform="matrix(.463 0 0 .463 -333.016 -565.978)" gradientUnits="userSpaceOnUse"><stop offset="0" stop-color="#fff"/><stop offset=".5" stop-color="#4C6B97"/><stop offset="1" stop-color="#231F20"/></radialGradient><ellipse fill="url(#a)" cx="128" cy="128" rx="128" ry="67.3"/><ellipse fill="#6181B6" cx="128" cy="128" rx="123" ry="62.3"/><g fill="#fff"><path d="M152.9 148.2l6.1-31.398c1.4-7.101.2-12.4-3.4-15.7-3.5-3.2-9.5-4.799-18.3-4.799h-10.6l3-15.6c.1-.601 0-1.201-.4-1.699-.399-.498-.902-.7-1.502-.7h-14.598c-1.003 0-1.8.7-2 1.601l-6.5 33.302c-.601-3.802-2-7.001-4.4-9.601-4.302-4.898-11.002-7.4-20.103-7.4h-28.097c-1 0-1.8.701-2 1.601l-13.1 67.593c-.1.6 0 1.2.4 1.697.399.498.899.702 1.5.702h14.7c1 0 1.801-.702 2-1.602l3.2-16.301h10.9c5.7 0 10.6-.602 14.3-1.797 3.9-1.303 7.4-3.402 10.5-6.301 2.5-2.3 4.603-4.899 6.2-7.702l-2.601 13.5c-.1.603 0 1.202.402 1.698.4.5.9.702 1.503.702h14.598c1 0 1.798-.702 1.997-1.603l7.2-36.998h10.003c4.3 0 5.497.801 5.897 1.2.302.302.902 1.501.2 5.2l-5.798 29.9c-.101.602 0 1.202.399 1.697.4.5.902.702 1.503.702h14.997c.9-.294 1.7-.993 1.9-1.894zm-67.6-26c-.899 4.701-2.6 8.1-5.1 10-2.5 1.902-6.601 2.9-12 2.9h-6.5l4.702-24.199h8.398c6.2 0 8.7 1.301 9.7 2.4 1.3 1.599 1.6 4.699.8 8.899zM215.3 103.602c-4.3-4.899-11-7.401-20.1-7.401h-28.3c-1 0-1.801.701-2 1.602l-13.1 67.497c-.1.603 0 1.203.4 1.7.399.5.902.7 1.502.7h14.698c1.002 0 1.8-.7 2-1.6l3.2-16.3h10.9c5.7 0 10.603-.6 14.303-1.8 3.901-1.3 7.401-3.399 10.502-6.3 2.598-2.4 4.798-5.1 6.399-8 1.601-2.902 2.801-6.1 3.5-9.6 1.696-8.7.396-15.499-3.904-20.498zm-15.3 18.598c-.9 4.701-2.6 8.1-5.098 10-2.5 1.902-6.6 2.9-12 2.9h-6.5l4.702-24.199h8.397c6.2 0 8.7 1.301 9.702 2.4 1.397 1.599 1.697 4.699.797 8.899z"/></g><g fill="#000004"><path d="M74.8 108.9c5.601 0 9.3 1.001 11.2 3.1s2.3 5.601 1.3 10.602c-1 5.198-3 8.999-5.899 11.198-2.9 2.2-7.301 3.301-13.2 3.301h-8.9l5.498-28.2h10.001zm-35.8 56.8h14.7l3.5-17.9h12.6c5.601 0 10.101-.6 13.7-1.8 3.6-1.195 6.8-3.1 9.8-5.897 2.5-2.3 4.5-4.798 6-7.502 1.5-2.7 2.601-5.699 3.2-8.999 1.6-8.001.4-14.201-3.5-18.699-3.9-4.499-10.1-6.701-18.6-6.701h-28.3l-13.1 67.498zM113.3 80.301h14.6l-3.5 17.898h13c8.199 0 13.8 1.401 16.899 4.301 3.101 2.9 4 7.501 2.8 13.901l-6.099 31.399h-14.8l5.8-29.9c.7-3.4.4-5.7-.7-6.901-1.1-1.2-3.6-1.898-7.3-1.898h-11.7l-7.5 38.699h-14.6l13.1-67.499zM189.5 108.9c5.6 0 9.3 1.001 11.2 3.1 1.899 2.099 2.3 5.601 1.3 10.602-1 5.198-3 8.999-5.9 11.198-2.899 2.2-7.3 3.301-13.199 3.301h-8.901l5.5-28.2h10zm-35.8 56.8h14.7l3.5-17.9h12.6c5.6 0 10.1-.6 13.7-1.8 3.6-1.195 6.8-3.1 9.8-5.897 2.5-2.3 4.5-4.798 6-7.502 1.5-2.7 2.6-5.699 3.2-8.999 1.6-8.001.399-14.201-3.5-18.699-3.9-4.499-10.101-6.701-18.601-6.701h-28.3l-13.099 67.498z"/></g></svg>