<svg xmlns="http://www.w3.org/2000/svg" width="256" height="256" viewBox="0 0 256 256"><path fill="#CD6799" d="M220.44 142.368c-8.933.049-16.693 2.197-23.193 5.38-2.385-4.723-4.768-8.933-5.189-12.016-.468-3.603-1.027-5.802-.468-10.103.564-4.303 3.087-10.427 3.042-10.896-.05-.469-.56-2.664-5.705-2.715-5.146-.045-9.587.983-10.1 2.34-.515 1.356-1.502 4.441-2.154 7.621-.886 4.677-10.285 21.372-15.66 30.112-1.732-3.413-3.228-6.403-3.553-8.788-.468-3.603-1.03-5.799-.468-10.103.561-4.302 3.086-10.425 3.038-10.895-.048-.468-.56-2.665-5.705-2.712-5.141-.046-9.586.982-10.1 2.337s-1.075 4.535-2.15 7.622c-1.077 3.086-13.56 30.956-16.832 38.157-1.684 3.695-3.134 6.641-4.163 8.651 0 0-.047.14-.188.372-.891 1.73-1.403 2.667-1.403 2.667v.046c-.701 1.264-1.451 2.432-1.824 2.432-.28 0-.797-3.364.092-7.945 1.873-9.68 6.313-24.737 6.266-25.25 0-.282.843-2.901-2.899-4.255-3.648-1.359-4.958.886-5.285.886-.328 0-.561.797-.561.797s4.065-16.928-7.762-16.928c-7.391 0-17.583 8.091-22.633 15.384-3.181 1.731-9.963 5.425-17.208 9.399-2.76 1.543-5.612 3.085-8.279 4.535l-.562-.608c-14.308-15.292-40.773-26.095-39.65-46.62.42-7.481 2.99-27.121 50.827-50.97 39.372-19.404 70.702-14.028 76.125-2.104 7.765 17.021-16.787 48.633-57.465 53.215-15.522 1.729-23.663-4.257-25.721-6.5-2.151-2.337-2.475-2.478-3.271-2.012-1.31.701-.468 2.807 0 4.021 1.215 3.183 6.218 8.791 14.683 11.553 7.479 2.431 25.669 3.785 47.695-4.725 24.644-9.538 43.906-36.051 38.249-58.263-5.655-22.538-43.064-29.972-78.462-17.396-21.041 7.482-43.86 19.266-60.273 34.604-19.499 18.24-22.586 34.092-21.326 40.731 4.537 23.567 37.037 38.904 50.034 50.269-.656.375-1.26.703-1.776.98-6.5 3.228-31.28 16.181-37.455 29.883-7.016 15.522 1.12 26.655 6.5 28.15 16.694 4.629 33.853-3.695 43.064-17.44 9.212-13.75 8.09-31.612 3.835-39.797-.048-.091-.097-.186-.188-.276 1.683-.987 3.415-2.012 5.096-2.996 3.319-1.964 6.594-3.786 9.401-5.285-1.59 4.348-2.76 9.54-3.321 17.021-.703 8.791 2.899 20.2 7.62 24.688 2.104 1.963 4.585 2.011 6.174 2.011 5.518 0 7.995-4.585 10.755-10.006 3.365-6.642 6.403-14.357 6.403-14.357s-3.785 20.854 6.5 20.854c3.742 0 7.53-4.86 9.212-7.338v.045l.282-.467.607-.979v-.095c1.495-2.618 4.863-8.56 9.868-18.423 6.45-12.72 12.668-28.619 12.668-28.619s.564 3.882 2.478 10.332c1.122 3.79 3.462 7.95 5.332 11.973-1.495 2.104-2.433 3.272-2.433 3.272l.047.048c-1.212 1.593-2.522 3.321-3.974 5.002-5.096 6.078-11.173 13.047-12.019 15.058-.978 2.385-.745 4.115 1.123 5.516 1.359 1.032 3.79 1.174 6.266 1.032 4.582-.33 7.807-1.45 9.397-2.152 2.478-.891 5.382-2.245 8.092-4.256 5.002-3.694 8.043-8.978 7.765-15.947-.145-3.833-1.407-7.668-2.949-11.268l1.357-1.963c7.904-11.554 14.027-24.225 14.027-24.225s.56 3.883 2.475 10.332c.935 3.275 2.853 6.828 4.537 10.29-7.435 6.033-12.017 13.043-13.654 17.626-2.948 8.513-.652 12.347 3.692 13.235 1.968.422 4.772-.514 6.827-1.405 2.623-.841 5.705-2.29 8.655-4.44 5-3.694 9.819-8.837 9.538-15.805-.143-3.178-.98-6.313-2.152-9.355 6.314-2.617 14.451-4.065 24.83-2.85 22.259 2.619 26.652 16.505 25.812 22.352-.841 5.844-5.519 9.023-7.059 10.006-1.547.984-2.06 1.307-1.919 2.012.187 1.026.937.982 2.246.795 1.821-.327 11.69-4.724 12.108-15.478.711-13.748-12.382-28.754-35.529-28.618zm-171.703 57.89c-7.392 8.043-17.678 11.082-22.119 8.512-4.768-2.762-2.9-14.637 6.17-23.147 5.52-5.188 12.627-10.005 17.35-12.95 1.074-.656 2.664-1.592 4.582-2.762l.513-.28 1.123-.7c3.322 12.154.141 22.866-7.619 31.327zm53.775-36.568c-2.574 6.267-7.951 22.307-11.224 21.417-2.804-.747-4.536-12.904-.559-24.923 2.01-6.032 6.263-13.232 8.743-16.042 4.021-4.489 8.463-5.984 9.539-4.158 1.354 2.384-4.908 19.782-6.499 23.706zm44.373 21.232c-1.072.561-2.103.931-2.57.653-.327-.186.468-.935.468-.935s5.565-5.983 7.761-8.696c1.265-1.592 2.76-3.46 4.348-5.566v.606c-.001 7.156-6.921 11.974-10.007 13.938zm34.227-7.81c-.795-.56-.652-2.433 2.015-8.277 1.023-2.292 3.456-6.125 7.618-9.819.468 1.495.795 2.946.745 4.304-.041 9.025-6.495 12.39-10.378 13.792z"/></svg>