<svg xmlns="http://www.w3.org/2000/svg" width="256" height="256" viewBox="0 0 256 256"><path fill="#3185B8" d="M232.863 15.211c-1.518-1.243-13.418-7.625-13.418-7.625l-12.701 7.378-.006-.004 12.699-7.378-12.695-7.566-.004 14.944-13.244-7.415s-10.836 6.334-16.096 9.369c-6.623 3.822-22.859 13.491-22.859 13.491v14.278l-13.381 34.858v18.929l-9.389 5.48-3.734 9.774-26.328-68.303.006-14.98-52.482-30.441-26.209 15.174-.025-.007v15.437l16.343 39.37 9.937 5.852.01 17.954 39.382 95.648 39.352 22.522v.129l39.303-22.743 65.682-159.042-.143-15.083M128.049 211.964l-39.387-22.541-39.376-95.644-.01-17.954-9.937-5.852-16.343-39.37v-15.436l12.935 7.542v15.196l13.368 7.756.004-15.283 26.119 15.112 1.26 14.96 37.973 98.562 26.385 15.373v30.141l-13.029-7.664.038 15.102"/><path fill="#61A5CE" d="M101.703 45.421l26.328 68.303-.053 37.625-13.346 7.591-37.956-98.595-1.256-14.852 26.287-15.05-.004 14.978M35.931 22.709v15.196l13.368-7.526-13.368-7.67"/><path fill="#EAE9E6" d="M49.299 45.664l.004-15.283-13.372 7.526 13.368 7.757"/><path fill="#3185B8" d="M127.979 151.348l13.162 7.529 14.654-36.793 11.285 6.716v-35.263l3.602-8.515 9.607 5.628v-14.907l-13.082-7.602 13.156-7.635-12.938-7.455-.033-15.15-12.857-7.497v14.278l-13.377 34.858v18.93l-9.391 5.48-3.732 9.774-.056 37.624"/><path fill="#61A5CE" d="M127.797 166.75l13.238 7.637-.064 30.147 26.352-15.202 65.68-159.042-.145-15.078-39.363 22.691v30.272l-13.207 7.568v14.907l-9.609-5.628-3.6 8.515v35.191l-18.283 10.753-7.654 19.4-13.345 7.869"/><path fill="#EAE9E6" d="M75.338 60.616l13.207-7.673v15.181l-13.207-7.508"/><path fill="#3185B8" d="M88.545 68.124l13.098 7.401v-14.909l-13.098-7.673v15.181"/><path fill="#61A5CE" d="M62.328 98.267v15.29l13.225-7.61-13.225-7.68"/><path fill="#EAE9E6" d="M88.754 113.63l-13.27 7.726-13.154-7.799 13.227-7.61 13.197 7.683"/><path fill="#61A5CE" d="M88.576 159.05v15.421l13.295-7.687-13.295-7.734"/><path fill="#EAE9E6" d="M114.676 189.262l13.391 7.781.049-15.661-13.44 7.88"/><path fill="#61A5CE" d="M128.02 212.077l.047-15.034 12.908 7.493-12.955 7.541"/><path fill="#EAE9E6" d="M127.979 151.348l-13.346 7.591 13.164 7.812 13.344-7.873-13.162-7.53"/><path fill="#3185B8" d="M193.494 68.175v-30.273l-13.033-7.419v15.083l-13.035 7.486 26.068 15.123"/><path fill="#EAE9E6" d="M167.207 68.142l13.156-7.635 13.131 7.668-13.205 7.568-13.082-7.601"/><path fill="#61A5CE" d="M167.426 53.052l13.035-7.486v-15.083l-13.066 7.419.031 15.15"/><path fill="#3185B8" d="M206.738 14.962l.004-14.944 12.695 7.566-12.699 7.378"/><path fill="#EAE9E6" d="M232.863 15.211l-39.369 22.691-13.033-7.419-13.066 7.419-12.855-7.497s16.24-9.669 22.859-13.491c5.26-3.035 16.096-9.369 16.096-9.369l13.25 7.419 12.701-7.378c-.001 0 11.898 6.382 13.417 7.625M101.707 30.441l-26.287 15.05-52.398-30.317 26.209-15.174 52.476 30.441"/><path fill="#3185B8" d="M219.645 37.558v-14.729l-12.807 7.389 12.807 7.34M180.822 106.03l12.742-7.312v14.664l-12.742-7.352"/><path fill="#EAE9E6" d="M154.188 166.65v15.192l13.275-7.679-13.275-7.513"/><path fill="#3185B8" d="M167.547 174.166l-.166-15.075-13.193 7.56 13.359 7.515"/><path fill="#3285B7" d="M37.315 255.509h5.693l10.807-32.704h-4.077l-9.575 29.021-9.573-29.021h-4.077l10.802 32.704zm32.802-32.704h-5.695l-11.05 32.704h4.273l2.654-7.856h13.898l2.699 7.856h4.273l-11.052-32.704zm2.996 21.166h-11.687l5.846-18.123 5.841 18.123zm16.744-11.784c0-4.421 1.619-6.043 7.023-6.043 2.699 0 5.65.295 8.787.834l.492-3.635c-3.043-.688-6.283-1.029-9.084-1.029-8.15 0-11.441 3.046-11.441 9.673v14.389c0 6.041 2.555 9.625 10.904 9.625 3.387 0 7.168-.491 10.359-1.423v-14.096h-4.076v11.101c-2.26.44-4.416.591-6.139.591-5.598 0-6.826-1.868-6.826-6.043v-13.944zm45.274 23.322h4.863l-8.496-12.325c3.783-1.079 5.207-3.733 5.207-7.611v-4.718c0-5.007-2.457-8.05-9.477-8.05h-12.471v32.704h4.221v-11.834h8.002l8.151 11.834zm-2.649-24.602v4.713c0 3.193-1.375 4.32-5.402 4.32h-8.1v-13.358h8.1c4.027 0 5.402 1.084 5.402 4.325zm27.649-8.102h-5.695l-11.051 32.704h4.273l2.652-7.856h13.896l2.701 7.856h4.273l-11.049-32.704zm2.992 21.166h-11.684l5.844-18.123 5.84 18.123zm31.871 11.538h5.795v-32.704h-4.027v27.991l-14.24-27.991h-5.795v32.704h4.027v-27.843l14.24 27.843zm20.723 0h4.221v-28.927h9.773v-3.777h-23.77v3.777h9.771v28.927h.005z"/></svg>