<svg xmlns="http://www.w3.org/2000/svg" width="256" height="256" viewBox="0 0 256 256"><path fill="#464342" d="M18.195 127.998c0 43.461 25.257 81.02 61.884 98.82l-52.379-143.507c-6.091 13.654-9.505 28.769-9.505 44.687zm183.928-5.541c0-13.57-4.875-22.969-9.058-30.285-5.565-9.045-10.781-16.707-10.781-25.746 0-10.094 7.654-19.492 18.438-19.492.486 0 .945.06 1.423.088-19.536-17.896-45.563-28.826-74.15-28.826-38.358 0-72.108 19.682-91.741 49.495 2.578.076 5.005.133 7.066.133 11.484 0 29.262-1.395 29.262-1.395 5.918-.35 6.618 8.344.707 9.045 0 0-5.948.699-12.568 1.045l39.983 118.936 24.032-72.068-17.109-46.873c-5.913-.348-11.514-1.049-11.514-1.049-5.916-.344-5.223-9.391.696-9.043 0 0 18.131 1.395 28.922 1.395 11.484 0 29.264-1.395 29.264-1.395 5.923-.348 6.618 8.344.705 9.043 0 0-5.964.701-12.568 1.049l39.682 118.037 10.952-36.604c4.743-15.183 8.357-26.093 8.357-35.49zm-72.2 15.145l-32.945 95.73c9.836 2.893 20.24 4.473 31.018 4.473 12.789 0 25.051-2.209 36.464-6.223-.295-.469-.563-.971-.784-1.514l-33.753-92.466zm94.423-62.288c.468 3.5.736 7.252.736 11.293 0 11.143-2.082 23.668-8.348 39.328l-33.541 96.973c32.643-19.035 54.6-54.404 54.6-94.908.007-19.092-4.872-37.043-13.447-52.686zm-96.348-75.31c-70.577 0-127.998 57.416-127.998 127.994 0 70.582 57.421 127.998 127.998 127.998 70.574 0 128.002-57.416 128.002-127.998-.002-70.578-57.43-127.994-128.002-127.994zm0 250.127c-67.339 0-122.13-54.791-122.13-122.133s54.786-122.126 122.13-122.126c67.338 0 122.12 54.785 122.12 122.126s-54.782 122.133-122.12 122.133z"/></svg>