<svg xmlns="http://www.w3.org/2000/svg" width="110" height="110" viewBox="0 0 110 110"><path d="M44.301 78.489l.027-.014c-.953-.832-1.36-1.436-1.36-1.436l-.652-11.995c-5.992-.302-9.66-3.017-9.66-3.017l9.015-8.868-.101-1.842c-.324.046-.653.078-.99.078-3.678 0-6.684-2.819-7.007-6.412h-.001l-.015-.132c-.019-.157-.024-.32-.024-.47l-.001.006.001-.007-.001-.033c0-.197.014-.391.029-.584l-.087.046-.443.215-.355.163-.472.18-.27.089-.468.128-.207.042-.468.078-.08.006c-.531.052-1.006.022-1.427-.063l-.104-.02-.349-.096-.108-.035-.322-.126-.06-.028c-.165-.076-.312-.16-.452-.246l-.108-.071-.305-.219-.042-.033c-.476-.386-.713-.741-.713-.741l.033.491.008-.013.003.18c.017.274.024.539.014.785l-.024.323c-.021.213-.043.421-.082.614l-.082.326c-.045.164-.09.327-.148.475l-.144.31-.193.362-.204.283-.221.272-.261.247-.232.201-.309.206-.235.144-.345.164-.228.1-.369.122-.213.066-.379.084-.193.04-.371.051-.169.021-.348.024-.141.008-.305.003-.111.001-.261-.01-.061-.002-.19-.015-.019-.001-.074-.008s-1.344 7.443.905 14.936l.011-.005.2.67.041.13.116.114c.08.279.16.56.279.838v.039l-.029.014c.313.818.676 1.628 1.092 2.423l.013-.006.388.699c.143.247.275.498.429.742 3.165 5.025 8.807 9.111 18.76 9.549l-.102-1.949s.4.591 1.331 1.409zM89.956 32.362l-1.712 5.018h-5.365c3.403.488 6.022 3.4 6.039 6.935l.003.034-.002-.022.001.022v.003c-.002 3.817-3.04 6.917-6.829 7.034 5.08 4.398 7.665 10.644 7.665 10.644s-3.655 2.706-9.631 3.016l-.642 11.994-.113 2c2.167 1.075 4.151 2.326 5.981 3.714l-.015-.021.192.15c.732.556 1.463 1.141 2.157 1.762l.034.046c.257.229.504.467.754.702l.729.511.086.063c.264.189.528.385.793.585l.192.146.703.548.234.188.684.563.236.197c.272.231.545.469.816.711l.188.17.443.407c5.663-7.481 9.038-16.816 9.038-26.937 0-15.342-7.727-28.893-19.468-36.891l-1.158 6.707h7.967zM37.34 38.092l.073-.035.458-.24.009.021c.533-.222 1.102-.373 1.692-.458h-2.417c.079.225.145.461.185.712zM26.762 38.894l-.129-.167.089.206.04-.039zM40.46 32.362l-1.669-9.561c-1.519.771-2.987 1.627-4.4 2.564.159.542.261 1.087.331 1.627l.004-.004.014.147c.037.314.057.621.06.925l-.002.453-.03.401c-.027.285-.066.564-.13.829l-.009.035c-.068.272-.15.536-.261.78l-.083.171-.182.33c-.107.169-.225.331-.358.477l-.026.03c-.148.155-.313.295-.495.419l-.122.077c-.187.116-.384.221-.604.301-2.53.934-3.866-.339-4.571-1.771-1.138 1.11-2.221 2.276-3.236 3.502l2.073 4.798c1.963-2 3.468-2.995 4.663-3.456l-.004-.009.246-.076.363-.111.147-.035c.473-.109.893-.138 1.268-.116l-.909-2.728h7.922zM27.16 27.823l-.709.931c.244-.236.484-.476.733-.706l-.024-.225z" fill="none"/><path fill="#020202" d="M12.541 56.244c.408-2.6.955-5.331 1.869-8.204-.854 2.642-1.49 5.382-1.869 8.204zM15.023 46.232l-.064.187.056-.16.008-.027zM38.791 22.801l-.424-2.425c-1.688.825-3.312 1.76-4.88 2.778.369.691.677 1.442.903 2.211 1.414-.937 2.882-1.793 4.401-2.564zM27.185 28.048c-.249.23-.489.47-.733.706l-2.597 3.41.834 1.931c1.016-1.227 2.099-2.393 3.236-3.502-.498-1.011-.683-2.092-.74-2.545zM84.086 23.476l-.503-.326-.433 2.505c11.741 7.998 19.468 21.548 19.468 36.891 0 10.12-3.375 19.455-9.038 26.937l.319.296.423.408.113.109-.001.001c-.262.344-.524.686-.796 1.021-.458.568-.93 1.125-1.413 1.67-.38.427-.771.843-1.166 1.255-.757.79-1.538 1.557-2.35 2.29l-.001.001c-2.766 2.5-5.839 4.657-9.153 6.416-.712.377-1.435.734-2.168 1.074-2.906 1.347-5.977 2.393-9.174 3.097-1.062.233-2.137.431-3.226.588-2.107.304-4.259.47-6.449.47-.361 0-.718-.018-1.077-.026-1.084-.025-2.161-.08-3.225-.181-4.769-.455-9.314-1.664-13.535-3.497-.728-.316-1.446-.65-2.154-1.004-2.877-1.435-5.586-3.163-8.082-5.157-.45-.359-.895-.727-1.331-1.103l-.141-.12c-.515-.447-1.021-.905-1.515-1.376 0 0-.343-.319-.917-.899-2.442-2.469-9.156-9.753-12.311-18.194 5.936 18.975 23.541 32.753 44.286 32.753 25.604 0 46.43-20.984 46.43-46.828.002-16.297-8.31-30.679-20.88-39.071z"/><path fill="#050505" d="M93.58 89.483l.319.295-.319-.295-.443-.408.443.408zM94.436 90.296l-.113-.109.113.109z"/><path fill="#D8AF6F" d="M37.906 41.115c-.304-.089-.618-.152-.951-.152l-.223.009-.041.067c.367.081.707.258 1.008.512.721.609 1.207 1.644 1.207 2.836 0 1.703-.98 3.095-2.241 3.354l-.107.029.397.04c1.872 0 3.424-1.513 3.424-3.424l-.002-.019c-.039-1.56-1.07-2.84-2.471-3.252zM82.142 45.033c.128.629.436 1.192.859 1.647l.068.083c.11.11.235.204.359.299l.147.122c.13.088.273.157.415.227l.167.09c.409.174.861.271 1.339.271h.012c.114 0 .26-.002.372-.037l.013-.002c-1.313-.197-2.349-1.631-2.349-3.383 0-1.75 1.034-3.184 2.346-3.384l.003-.001-.396-.04c-.236 0-.467.024-.689.07l-.153.047c-.165.042-.33.085-.485.15l-.34.184-.241.131-.255.208-.255.21-.137.165c-.099.111-.2.22-.283.343l-.052.095c-.099.156-.192.316-.265.488l-.019.058c-.075.188-.14.381-.181.584-.032.158-.04.323-.05.488l-.021.203.027.273.044.411z"/><path fill="#F4CF8C" d="M15.015 46.26l.043.02 2.099.942 3.712 1.667.074.008.019.001.19.015.061.002.261.01.111-.001.305-.003.141-.008.348-.024.169-.021.371-.051.193-.04.379-.084.213-.066.369-.122.228-.1.345-.164.235-.144.309-.206.232-.201.261-.247.221-.272.204-.283.193-.362.144-.31c.059-.148.104-.311.148-.475l.082-.326c.039-.192.062-.4.082-.614l.024-.323c.011-.246.003-.511-.014-.785l-.003-.18-.008.013-.033-.491s.237.354.713.741l.042.033.305.219.108.071c.14.086.287.17.452.246l.06.028.322.126.108.035.349.096.104.02c.421.085.896.115 1.427.063l.08-.006.468-.078.207-.042.468-.128.27-.089.472-.18.355-.163.443-.215.087-.046c-.016.193-.029.387-.029.584l.001.033-.001.007.001-.006c0 .15.006.313.024.47l.015.132h.001c.323 3.593 3.329 6.412 7.007 6.412.337 0 .666-.032.99-.078l.101 1.842 3.871-3.809.036-.035 1.771-1.743c3.841-.96 6.798-.763 8.984-.181l-.025-.018h.041c-.002-.011-.518-3.189-.24-5.614 0 0-1.791 3.066-6.729 2.548 0 0 4.699-.318 6.69-4.3l-.22-.279h-6.108c-.901.311-1.896.712-2.979 1.237-.379.184-.767.379-1.166.595 0 0 .339-.409.949-.952.306-.271.679-.573 1.119-.88h-6.729l-.128-2.349h-1.236c-.591.085-1.159.236-1.692.458l-.009-.021-.458.24-.073.035c-.04-.251-.105-.487-.185-.712h-2.947l-.758-2.274-.005-.016c-.375-.021-.795.007-1.268.116l-.147.035-.363.111-.246.076.004.009c-1.195.461-2.7 1.456-4.663 3.456l-2.073-4.798-.834-1.931 2.597-3.41.709-.931.024.225c.058.453.242 1.533.74 2.544.705 1.432 2.041 2.704 4.571 1.771.221-.081.418-.186.604-.301l.122-.077c.182-.124.347-.264.495-.419l.026-.03c.134-.146.251-.307.358-.477l.182-.33.083-.171c.11-.244.192-.508.261-.78l.009-.035c.063-.265.103-.544.13-.829l.03-.401.002-.453c-.003-.304-.022-.611-.06-.925l-.014-.147-.004.004c-.07-.54-.172-1.085-.331-1.627-.227-.769-.534-1.52-.903-2.211-1.026-1.923-2.532-3.374-4.137-3.374l-7.885 4.54s.276-.764 1.102-1.899l.013-.014.307-.405c1.152-1.463 3.141-3.396 6.464-5.128 0 0 .251-.151.546-.473.635-.67 1.526-2.156.528-4.705l-.078-.199-.035.101c-1.778-3.447-15.326-.657-17.486 16.943l-.219-.235-.01-.011-.313-.393-.018-.022c-.176-.239-.374-.543-.565-.9l-.156-.31-.154-.345c-.08-.194-.157-.394-.224-.61l-.027-.082c-.256-.864-.379-1.896-.186-3.066.125-.75-.114-1.299-.55-1.633-1.629-1.385-6.366.523-5.184 6.852 1.474 7.884 9.078 9.517 9.078 9.517s1.935 3.135 1.241 7.05l-.006-.003c-.083.469-.197.89-.332 1.324l-.187.548.008.012h.001l-.009.024zm21.94 1.552l-.397-.04.107-.029c1.261-.26 2.241-1.652 2.241-3.354 0-1.193-.486-2.228-1.207-2.836-.301-.254-.641-.432-1.008-.512l.041-.067.223-.009c.333 0 .647.062.951.152 1.4.412 2.432 1.692 2.471 3.255l.002.019c0 1.908-1.552 3.421-3.424 3.421zm-10.193-8.918l-.04.039-.089-.206.129.167z"/><path fill="#050505" d="M12.245 65.962c.83-.002 1.605-.052 2.346-.128 3.594-.368 6.106-1.456 7.183-2.01-2.249-7.493-.905-14.936-.905-14.936l-3.712-1.667 3.711 1.667c-.001.002-.677 3.584-.317 8.281-1.956 1.275-3.933 1.595-5.914 1.49-.777-.041-1.555-.142-2.333-.283l-.027-.005c-.285 2.468-.383 4.822-.327 7.064l.042.549-.001-.016.254-.006zM22.022 64.616l.003.003-.041-.13.038.127zM15.143 70.307c4.076-.441 7.091-1.669 8.341-2.26-.416-.795-.778-1.604-1.092-2.423-2.528 1.356-5.313 1.912-7.622 2.127-.868.081-1.662.118-2.353.125l-.221.003c.108.859.24 1.721.399 2.585l.188-.005c.82-.02 1.609-.071 2.36-.152z"/><path fill="#DD002A" d="M14.636 58.66c1.981.104 3.958-.215 5.914-1.49-.359-4.697.316-8.279.317-8.281l-3.711-1.667-2.099-.942-.043-.02-.056.16c-.198.545-.378 1.085-.549 1.621-.914 2.873-1.461 5.604-1.869 8.204-.112.716-.218 1.425-.313 2.12l.048.008.027.005c.779.141 1.556.241 2.334.282zM14.77 67.751c2.309-.215 5.094-.771 7.622-2.127l.029-.014v-.039c-.119-.278-.199-.559-.279-.838l-.116-.114-.003-.003-.038-.127-.2-.67-.011.005c-1.076.554-3.589 1.642-7.183 2.01-.74.076-1.516.126-2.346.128l-.256.008.001.016c.055.628.126 1.261.206 1.894l.221-.003c.69-.008 1.484-.045 2.353-.126zM15.563 72.407c2.611-.3 5.706-1.067 8.769-2.854v-.039l-.02-.032c-.153-.244-.286-.495-.429-.742l-.388-.699-.013.006c-1.25.591-4.265 1.818-8.341 2.26-.751.081-1.54.133-2.358.152l-.188.005c.13.702.279 1.405.446 2.107l.146-.003c.73-.014 1.524-.063 2.376-.161z"/><path fill="#050505" d="M60.927 83.411c-9.492 0-14.447-3.057-16.599-4.936l-.027.014c2.134 1.876 7.088 4.962 16.628 4.962 6.234 0 11.133-1.881 14.334-3.605l-.002-.002c-3.199 1.71-8.097 3.567-14.334 3.567zM54.237 103.455c-3.85.142-7.567.397-11.11.756-.817.083-1.627.17-2.425.264 4.221 1.833 8.767 3.042 13.535 3.497v-4.5169999999999995zM64.988 103.919c0-.279-.238-.479-.478-.479h-6.57c-.279 0-.479.24-.479.479v4.233c.359.009.716.026 1.077.026 2.19 0 4.342-.166 6.449-.47v-3.789zM68.214 103.453v3.668c3.197-.704 6.268-1.75 9.174-3.097-.813-.072-1.635-.14-2.465-.201-2.185-.162-4.423-.286-6.709-.37zM88.009 85.081l.475.321.72.502-.729-.511c-.25-.235-.497-.473-.754-.702l.282.382.006.008zM79.282 80.58c1.921.719 4.293 1.783 6.868 3.324l-.005-.007c-.274-.406-.541-.795-.794-1.144-1.83-1.388-3.814-2.639-5.981-3.714l-.088 1.538v.003zM27.479 95.715c.494.471 1 .929 1.515 1.376.098-.422.203-.851.321-1.288.938-3.472 2.559-7.38 5.335-11.001l.116-.156c.756-.676 1.552-1.313 2.349-1.912l-.048.068c-2.098 2.903-5.042 7.858-6.347 14.152l-.011.052c-.089.431-.172.864-.244 1.308 2.496 1.994 5.205 3.723 8.082 5.157.709-.094 1.43-.181 2.155-.267 4.296-.504 8.879-.854 13.661-1.028.325-1.034 1.288-1.801 2.422-1.801h8.88c1.137 0 2.103.746 2.424 1.798 3.196.113 6.302.306 9.293.57.731.064 1.456.134 2.173.207 3.314-1.759 6.388-3.916 9.153-6.416-.191-.349-.395-.695-.593-1.042-2.401-4.196-5.354-8.296-8.996-12.048l-.154 2.715s-6.809 6.212-18.037 6.212c-13.379 0-17.481-6.212-17.481-6.212l-.362-6.886-.011-.208-.002-.034c-9.953-.438-15.595-4.523-18.76-9.549l.02.032v.039c-3.062 1.786-6.157 2.554-8.769 2.854-.853.098-1.646.146-2.375.161l-.146.003c.152.641.314 1.281.5 1.919.209.717.447 1.428.71 2.131 3.154 8.441 9.868 15.726 12.311 18.194.574.581.916.9.916.9zm49.295-4.26h3.266v.836h-.876l1.513 1.872 1.555-1.872h-.877l-.121-.836h3.266v.836h-1.273l-2.15 2.668v1.673h1.273v.836h-3.424v-.836h1.273v-1.673l-2.15-2.668h-1.273v-.836z"/><path fill="#930023" d="M93.137 89.075l-.188-.17c-.271-.242-.544-.479-.816-.711l-.236-.197-.684-.563-.234-.188-.703-.548-.192-.146c-.265-.2-.529-.396-.793-.585l-.086-.063-.72-.502-.475-.321c1.616 2.181 2.828 4.453 3.733 6.665.171.416.334.831.483 1.242.483-.545.955-1.102 1.413-1.67.271-.336.534-.678.796-1.021l-.112-.11-.423-.408-.319-.295-.444-.409zM75.261 79.844l.002.002.001-.001.39-.207-.393.206zM86.15 83.904c-2.575-1.541-4.947-2.605-6.868-3.324l-.162 2.862v.002c3.642 3.752 6.595 7.852 8.996 12.048l.593 1.042.001-.001c.812-.733 1.593-1.5 2.35-2.29-.129-.436-.261-.866-.402-1.285-1.267-3.747-3.01-6.824-4.508-9.054z"/><path fill="#DD002A" d="M54.237 103.455v-.532c0-.261.052-.509.127-.747-4.782.174-9.365.524-13.661 1.028-.726.086-1.446.173-2.155.267.708.354 1.427.688 2.154 1.004.798-.094 1.607-.181 2.425-.264 3.543-.358 7.261-.614 11.11-.756zM30.721 96.954c1.305-6.294 4.249-11.249 6.347-14.152l.048-.068c-.797.599-1.593 1.236-2.349 1.912l-.116.156c-2.776 3.621-4.396 7.529-5.335 11.001-.118.438-.224.866-.321 1.288l.141.12c.437.376.881.743 1.331 1.103.072-.443.155-.877.244-1.308l.01-.052zM68.09 102.173c.073.237.124.485.124.75v.53c2.286.084 4.524.208 6.709.37.83.062 1.651.129 2.465.201.733-.34 1.456-.697 2.168-1.074-.717-.073-1.441-.143-2.173-.207-2.991-.264-6.097-.457-9.293-.57zM88.009 85.081l-.006-.008-.282-.382-.034-.046c-.694-.621-1.425-1.206-2.157-1.762l-.192-.15.015.021c.253.349.52.737.794 1.144l.005.007c1.498 2.229 3.24 5.307 4.507 9.054.142.419.273.85.402 1.285.395-.412.786-.828 1.166-1.255-.149-.411-.312-.826-.483-1.242-.907-2.213-2.119-4.485-3.735-6.666z"/><path fill="#F4CF8C" d="M57.503 39.928s-.638 3.862.04 6.65h7.445c.678-2.788.041-6.65.041-6.65l.122-.199h-7.771l.123.199zM76.177 64.896c-4.595-.597-8.705-3.586-11.454-6.963-1.032.423-2.213.791-3.517.791-1.267 0-2.466-.365-3.504-.787-2.753 3.376-6.875 6.362-11.469 6.959-1.397.182-2.701.211-3.918.149l.652 11.995s.407.604 1.36 1.436c2.151 1.879 7.106 4.936 16.599 4.936 6.237 0 11.135-1.857 14.334-3.567h.001l.392-.206.235-.138.003-.001c.752-.43 1.387-.834 1.908-1.192 1.08-.741 1.672-1.267 1.684-1.267l.642-11.996c-1.225.062-2.539.033-3.948-.149zm-14.971-3.745c1.393 0 2.668-.238 3.743-.676-.876 1.113-2.229 1.83-3.743 1.83-1.553 0-2.867-.717-3.743-1.83 1.075.438 2.349.676 3.743.676zm0 12.107c2.389 0 4.539-.438 6.371-1.155-1.475 1.871-3.783 3.106-6.371 3.106-2.589 0-4.896-1.194-6.371-3.106 1.832.716 4.021 1.155 6.371 1.155zM76.557 39.729h-1.69c.416.29.771.574 1.067.834.644.566 1.001.998 1.001.998-.423-.226-.83-.429-1.23-.621-1.065-.511-2.045-.906-2.932-1.211h-6.091l-.22.279c1.991 3.982 6.689 4.3 6.809 4.299-4.937.518-6.729-2.548-6.729-2.548.26 2.262-.171 5.178-.23 5.568 2.162-.533 5.05-.68 8.752.246l.641.182c1.93.578 3.665 1.529 5.202 2.678.408.305.804.623 1.185.952 3.789-.116 6.827-3.216 6.829-7.034v-.003l-.001-.022.002.022-.003-.034c-.017-3.535-2.636-6.446-6.039-6.935h-1.2779999999999998l-.127 2.349h-4.918zm5.515 4.618l.021-.203c.01-.165.018-.33.05-.488.041-.203.105-.396.181-.584l.019-.058c.072-.172.166-.332.265-.488l.052-.095c.083-.124.185-.232.283-.343l.137-.165.255-.21.255-.208.241-.131.34-.184c.155-.065.32-.108.485-.15l.153-.047c.223-.046.453-.07.689-.07l.396.04-.003.001c-1.312.201-2.346 1.634-2.346 3.384 0 1.752 1.035 3.186 2.349 3.383l-.013.002c-.112.035-.258.037-.372.037h-.012c-.478 0-.93-.097-1.339-.271l-.167-.09c-.142-.07-.285-.138-.415-.227l-.147-.122c-.124-.095-.249-.188-.359-.299l-.068-.083c-.424-.455-.731-1.018-.859-1.647l-.042-.412-.029-.272z"/><path fill="#B27D30" d="M66.312 47.327c.06-.391.49-3.306.23-5.568 0 0 1.792 3.066 6.729 2.548-.119.001-4.817-.317-6.809-4.299l.22-.279h-1.53l-.122.199s.637 3.862-.041 6.65h-7.445c-.678-2.788-.04-6.65-.04-6.65l-.122-.199h-1.532l.22.279c-1.991 3.982-6.69 4.3-6.69 4.3 4.938.518 6.729-2.548 6.729-2.548-.277 2.425.238 5.604.24 5.614h9.795l.168-.047zM46.546 40.609c-.61.542-.949.952-.949.952.399-.215.787-.411 1.166-.595 1.082-.525 2.077-.926 2.979-1.237h-2.076c-.441.308-.814.609-1.12.88zM76.935 41.561s-.357-.432-1.001-.998c-.296-.26-.651-.544-1.067-.834h-2.094c.887.305 1.866.7 2.932 1.211.399.192.807.395 1.23.621z"/><path fill="#050505" d="M63.797 56.711c-.441-.63-.82-1.263-1.157-1.89h-2.851c-.34.635-.725 1.274-1.172 1.911.746-.296 1.636-.478 2.589-.478.971 0 1.854.168 2.591.457z"/><path fill="#DD002A" d="M64.723 57.933l-.002-.003c-.327-.402-.638-.809-.924-1.219-.737-.289-1.62-.457-2.591-.457-.953 0-1.843.182-2.589.478-.284.404-.59.806-.913 1.202l-.002.003c1.038.422 2.237.787 3.504.787 1.304 0 2.484-.369 3.517-.791z"/><path fill="#fff" d="M61.264 50.863l-.004-.051-.015-.015-.031.031-.009.009-.047-.033c-.128 1.208-.606 2.591-1.369 4.016h2.851c-.751-1.401-1.233-2.762-1.376-3.957z"/><path fill="#C98C28" d="M61.206 75.209c2.588 0 4.896-1.235 6.371-3.106-1.832.717-3.982 1.155-6.371 1.155-2.35 0-4.539-.438-6.371-1.155 1.475 1.912 3.782 3.106 6.371 3.106zM61.206 62.306c1.514 0 2.867-.717 3.743-1.83-1.075.438-2.351.676-3.743.676-1.395 0-2.668-.238-3.743-.676.876 1.113 2.19 1.83 3.743 1.83z"/><path fill="#CEA063" d="M65.151 39.729h16.323l.127-2.349h-40.792l.128 2.349h16.444z"/><path fill="#050505" d="M40.46 32.362l-1.553-8.999h16.28c-.426.88-.671 1.863-.671 2.907 0 2.712 1.616 5.042 3.935 6.092h-25.915l.909 2.728.005.016.758 2.274h54.036l1.712-5.018h-25.995c2.318-1.05 3.935-3.38 3.935-6.092 0-1.043-.245-2.027-.671-2.907h16.32l-.396 2.292-1.157 6.707 1.158-6.707.433-2.505 2.032-11.773s-5.455-10.751-24.29-10.751c-22.855 0-24.529 10.751-24.529 10.751l1.571 8.999.424 2.425 1.669 9.561zm26.6-6.092c.039 3.226-2.588 5.854-5.854 5.854-3.227 0-5.854-2.628-5.854-5.854 0-1.058.287-2.049.78-2.907 1.012-1.758 2.905-2.947 5.073-2.947s4.062 1.189 5.073 2.947c.494.858.782 1.849.782 2.907z"/><path fill="#DD002A" d="M58.451 32.362c-2.318-1.05-3.935-3.38-3.935-6.092 0-1.043.245-2.027.671-2.907h-16.28l1.553 8.999h17.991zM83.545 23.363h-16.32c.426.88.671 1.863.671 2.907 0 2.712-1.616 5.042-3.935 6.092h18.031000000000002l1.157-6.707.396-2.292z"/><path fill="#050505" d="M60.199 22.723l.309.64.497 1.033.214-1.033.161-.779-.174-.018c-.352.001-.685.065-1.007.157zM61.206 21.173c-1.743 0-3.27.866-4.188 2.19-.571.824-.91 1.822-.91 2.907 0 2.827 2.271 5.097 5.098 5.097s5.098-2.27 5.098-5.097c.015-1.084-.32-2.083-.893-2.907-.921-1.324-2.462-2.19-4.205-2.19zm4.221 5.097c.041 2.31-1.871 4.221-4.221 4.221s-4.221-1.911-4.221-4.221c0-1.135.452-2.152 1.174-2.907.493-.516 1.116-.894 1.812-1.109l-.001-.008.004.008c.393-.121.802-.205 1.232-.205 1.207 0 2.283.51 3.049 1.314.724.761 1.172 1.784 1.172 2.907zM62.72 23.363l-.438 1.394 1.524-1.112c-.104-.104-.225-.19-.342-.282-.192-.151-.399-.282-.621-.394l-.123.394zM64.023 28.552c.246-.299.45-.631.592-1l-1.777-.368 1.185 1.368zM63.009 29.405c.343-.195.65-.438.912-.729l-1.521-.973.609 1.702zM60.448 29.814c.244.051.497.08.758.08l.412-.042-.453-1.752-.717 1.714zM61.772 29.837c.391-.061.757-.183 1.096-.356l-1.064-1.46-.032 1.816zM59.572 26.945l-1.924.128c.098.416.262.804.486 1.15l1.438-1.278zM59.931 27.542l-1.718.796c.237.338.531.631.867.871l.851-1.667zM60.488 27.94l-1.292 1.353c.334.219.708.375 1.105.477l.187-1.83zM64.659 27.41c.126-.372.21-.764.21-1.179l-1.871.317 1.661.862zM64.857 26.092c-.009-.422-.089-.829-.237-1.206l-1.622.985 1.859.221zM62.718 25.235l1.849-.478c-.166-.374-.396-.714-.675-1.011l-1.174 1.489zM57.597 25.694c-.025.176-.054.352-.054.536 0 .244.026.482.071.712l1.798-.674-1.815-.574zM60.368 24.596l-.209-1.233-.102-.597c-.379.125-.73.305-1.043.539l.061.058 1.293 1.233zM58.038 24.416c-.2.351-.353.731-.428 1.143l1.922.032-1.494-1.175zM58.908 23.393c-.315.256-.59.556-.805.902l1.747.699-.942-1.601zM61.683 24.475l.733-1.112.304-.461c-.369-.168-.772-.266-1.193-.303l.063.764.093 1.112z"/><path fill="#DD002A" d="M59.974 22.254l-.004-.008.001.008c-.695.215-1.318.593-1.812 1.109-.722.755-1.174 1.772-1.174 2.907 0 2.31 1.871 4.221 4.221 4.221s4.262-1.911 4.221-4.221c0-1.123-.448-2.146-1.172-2.907-.766-.804-1.842-1.314-3.049-1.314-.431 0-.84.084-1.232.205zm.084.513l.102.597.209 1.233-1.293-1.233-.061-.058c.312-.235.664-.414 1.043-.539zm1.148 2.229c.716 0 1.273.557 1.273 1.274s-.558 1.274-1.273 1.274-1.273-.558-1.273-1.274.557-1.274 1.273-1.274zm-2.298-1.603l.942 1.601-1.747-.699c.215-.346.49-.646.805-.902zm-.87 1.023l1.494 1.175-1.922-.032c.076-.413.228-.793.428-1.143zm-.495 1.814c0-.184.028-.359.054-.536l1.815.574-1.798.674c-.045-.23-.071-.468-.071-.712zm2.029.715l-1.438 1.278c-.225-.347-.389-.735-.486-1.15l1.924-.128zm-1.359 1.393l1.718-.796-.851 1.667c-.336-.24-.63-.533-.867-.871zm2.275-.398l-.187 1.83c-.397-.101-.771-.258-1.105-.477l1.292-1.353zm.718 1.954c-.261 0-.514-.029-.758-.08l.717-1.714.453 1.752-.412.042zm.566-.057l.031-1.816 1.064 1.46c-.338.173-.704.296-1.095.356zm1.237-.432l-.609-1.702 1.521.973c-.262.291-.569.534-.912.729zm1.014-.853l-1.186-1.367 1.777.368c-.14.368-.344.7-.591.999zm.834-2.46l-1.859-.221 1.622-.985c.149.377.229.783.237 1.206zm.012.139c0 .416-.084.808-.21 1.179l-1.661-.862 1.871-.317zm-.303-1.474l-1.849.478 1.174-1.489c.279.297.509.637.675 1.011zm-.76-1.112l-1.524 1.112.438-1.394.123-.394c.222.111.429.243.621.394l.342.282zm-1.086-.743l-.304.461-.733 1.112-.093-1.112-.064-.763c.421.037.825.134 1.194.302zm-1.501.461l-.214 1.033-.497-1.033-.309-.64c.321-.092.655-.156 1.007-.156l.174.018-.161.778zM61.206 20.416c-2.168 0-4.062 1.189-5.073 2.947-.493.858-.78 1.849-.78 2.907 0 3.226 2.627 5.854 5.854 5.854 3.266 0 5.893-2.628 5.854-5.854 0-1.058-.287-2.049-.78-2.907-1.013-1.758-2.907-2.947-5.075-2.947zm5.098 5.854c0 2.827-2.271 5.097-5.098 5.097s-5.098-2.27-5.098-5.097c0-1.084.339-2.083.91-2.907.918-1.324 2.444-2.19 4.188-2.19s3.284.866 4.205 2.19c.572.824.907 1.823.893 2.907z"/><path fill="#050505" d="M61.206 27.544c.716 0 1.273-.557 1.273-1.274s-.558-1.274-1.273-1.274-1.273.558-1.273 1.274.557 1.274 1.273 1.274z"/><path fill="#DD002A" d="M79.282 80.58v-.002l.088-1.538.113-2c-.012 0-.604.525-1.684 1.267-.521.358-1.156.763-1.908 1.192l-.003.001-.235.138-.39.207-.001.001c-3.201 1.725-8.1 3.605-14.334 3.605-9.54 0-14.494-3.086-16.628-4.962-.931-.818-1.331-1.409-1.331-1.409l.103 1.951.002.034.011.208.362 6.886s4.103 6.212 17.481 6.212c11.229 0 18.037-6.212 18.037-6.212l.154-2.715v-.002l.163-2.862zm-18.076 11.631c-.318-1.153-.518-2.707-.518-4.34 0-1.634.199-3.146.518-4.341.318 1.154.518 2.668.518 4.341 0 1.633-.2 3.146-.518 4.34zm3.266-2.828c-.413 0-.761-.216-.984-.526-.312-.224-.529-.571-.529-.985 0-.682.553-1.233 1.234-1.233.412 0 .76.215.984.525.312.225.528.572.528.986 0 .681-.552 1.233-1.233 1.233z"/><path fill="#050505" d="M60.688 87.871c0 1.633.199 3.187.518 4.34.318-1.194.518-2.707.518-4.34 0-1.673-.199-3.187-.518-4.341-.318 1.196-.518 2.707-.518 4.341z"/><path fill="#930023" d="M65.177 87.163c.146.203.25.438.25.708 0 .682-.553 1.233-1.234 1.233-.268 0-.503-.104-.705-.248.224.311.571.526.984.526.682 0 1.233-.552 1.233-1.233 0-.414-.217-.761-.528-.986z"/><path fill="#fff" d="M65.427 87.871c0-.27-.104-.505-.25-.708-.225-.311-.572-.525-.984-.525-.682 0-1.234.552-1.234 1.233 0 .414.217.762.529.985.202.145.438.248.705.248.681 0 1.234-.551 1.234-1.233z"/><path fill="#FFB000" d="M68.214 103.453v-.53c0-.265-.051-.513-.124-.75-.321-1.052-1.287-1.798-2.424-1.798h-8.88c-1.134 0-2.097.767-2.422 1.801-.075.238-.127.486-.127.747v5.048c1.063.101 2.141.155 3.225.181v-4.233c0-.238.199-.479.479-.479h6.57c.239 0 .478.199.478.479v3.79c1.089-.157 2.163-.354 3.226-.588v-3.668z"/><path fill="#C98C28" d="M61.206 50.082s1.546-1.824 4.938-2.708h-9.836l.025.018.065.018c3.3.897 4.808 2.672 4.808 2.672zM61.214 50.829l.031-.031.015.015-.03-.411-.023-.319-.021.319-.025.388-.001.016.047.033.007-.01z"/><path fill="#4F1907" d="M42.315 65.045c1.217.062 2.521.032 3.918-.149 4.594-.597 8.716-3.583 11.469-6.959l.002-.003c.323-.396.629-.798.913-1.202.447-.637.832-1.275 1.172-1.911.763-1.425 1.241-2.808 1.369-4.016l.001-.016.025-.388.021-.319s-1.508-1.775-4.808-2.672l-.065-.018c-2.187-.582-5.144-.779-8.984.181l-1.771 1.743-.036.035-3.871 3.809-9.015 8.868s3.668 2.715 9.66 3.017zM75.704 47.755l-.641-.182c-3.702-.926-6.59-.779-8.752-.246l-.168.047c-3.392.884-4.938 2.708-4.938 2.708l.023.319.03.411.004.051c.144 1.194.625 2.556 1.376 3.958.337.627.716 1.26 1.157 1.89.286.41.597.816.924 1.219l.002.003c2.749 3.377 6.859 6.366 11.454 6.963 1.409.183 2.724.212 3.948.148 5.976-.31 9.631-3.016 9.631-3.016s-2.585-6.245-7.665-10.644c-.381-.329-.776-.646-1.185-.952-1.535-1.148-3.27-2.099-5.2-2.677z"/><path fill="#DD002A" d="M80.198 94.959v1.673h-1.273v.836h3.424v-.836h-1.274v-1.673l2.151-2.668h1.273v-.836h-3.266l.121.836h.877l-1.554 1.872-1.513-1.872h.876v-.836h-3.266v.836h1.274z"/></svg>