<svg xmlns="http://www.w3.org/2000/svg" width="256" height="256" viewBox="0 0 256 256"><path fill="#161614" d="M128.001 3.162C57.317 3.162 0 60.47 0 131.163c0 56.554 36.676 104.535 87.535 121.46 6.397 1.185 8.746-2.776 8.746-6.158 0-3.051-.119-13.136-.174-23.831-35.61 7.743-43.124-15.103-43.124-15.103-5.823-14.796-14.212-18.729-14.212-18.729-11.614-7.945.875-7.781.875-7.781 12.854.902 19.622 13.19 19.622 13.19 11.417 19.568 29.944 13.91 37.249 10.64 1.148-8.272 4.466-13.92 8.126-17.115-28.431-3.237-58.318-14.213-58.318-63.26 0-13.976 5-25.394 13.188-34.357-1.329-3.223-5.71-16.243 1.24-33.874 0 0 10.749-3.44 35.209 13.12 10.211-2.835 21.16-4.258 32.038-4.307 10.878.05 21.837 1.472 32.066 4.307 24.431-16.561 35.166-13.12 35.166-13.12 6.966 17.631 2.583 30.65 1.255 33.874 8.205 8.964 13.174 20.383 13.174 34.357 0 49.164-29.944 59.989-58.448 63.156 4.591 3.973 8.682 11.762 8.682 23.704 0 17.126-.148 30.911-.148 35.127 0 3.406 2.304 7.397 8.793 6.141C219.37 235.659 256 187.695 256 131.16 256 60.466 198.691 3.159 128.001 3.159m-80.06 182.344c-.282.636-1.282.826-2.194.391-.928-.417-1.449-1.285-1.148-1.923.275-.654 1.278-.838 2.205-.398.93.417 1.46 1.292 1.137 1.93m6.296 5.618c-.61.565-1.804.303-2.613-.592-.837-.893-.994-2.087-.375-2.66.629-.566 1.787-.301 2.626.591.837.902 1.001 2.089.362 2.661m4.319 7.188c-.784.546-2.067.035-2.859-1.104-.784-1.138-.784-2.504.017-3.05.795-.547 2.058-.055 2.861 1.074.782 1.159.782 2.523-.019 3.08m7.305 8.326c-.702.773-2.196.565-3.29-.49-1.12-1.033-1.431-2.497-.727-3.271.71-.776 2.212-.559 3.315.489 1.111 1.031 1.45 2.506.702 3.272m9.442 2.809c-.31 1.004-1.749 1.458-3.199 1.032-1.448-.438-2.396-1.613-2.103-2.627.301-1.008 1.747-1.483 3.207-1.027 1.447.438 2.396 1.603 2.095 2.622m10.744 1.192c.036 1.056-1.193 1.932-2.716 1.951-1.53.033-2.769-.82-2.785-1.859 0-1.065 1.202-1.934 2.733-1.958 1.523-.032 2.769.817 2.768 1.866m10.556-.404c.183 1.029-.875 2.088-2.386 2.369-1.486.271-2.861-.363-3.05-1.386-.185-1.056.893-2.113 2.376-2.387 1.514-.263 2.868.358 3.06 1.404"/></svg>
