<svg xmlns="http://www.w3.org/2000/svg" width="256" height="256" viewBox="0 0 256 256"><path fill="#55ACEE" d="M256 48.605c-9.419 4.177-19.542 7-30.166 8.271 10.844-6.5 19.172-16.794 23.093-29.058a105.158 105.158 0 0 1-33.351 12.745c-9.581-10.208-23.23-16.586-38.338-16.586-29.006 0-52.522 23.516-52.522 52.52 0 4.116.465 8.125 1.361 11.97-43.651-2.19-82.351-23.101-108.255-54.875-4.521 7.757-7.111 16.778-7.111 26.403 0 18.222 9.273 34.298 23.366 43.716a52.316 52.316 0 0 1-23.79-6.569l-.004.66c0 25.446 18.104 46.674 42.131 51.5a52.653 52.653 0 0 1-23.719.9c6.683 20.867 26.079 36.052 49.062 36.476-17.975 14.086-40.622 22.482-65.228 22.482-4.239 0-8.42-.248-12.529-.732 23.243 14.901 50.851 23.596 80.511 23.596 96.606 0 149.432-80.031 149.432-149.435 0-2.277-.051-4.542-.151-6.794A106.771 106.771 0 0 0 256 48.605"/></svg>
